<svg id="pie-chart-in-a-circle" xmlns="http://www.w3.org/2000/svg" width="62.647" height="62.647" viewBox="0 0 62.647 62.647">
  <g id="Group_36" data-name="Group 36">
    <path id="Path_11" data-name="Path 11" d="M31.323,0a31.2,31.2,0,0,0-27.9,17.122,0,0,0,0,0,0,0A30.987,30.987,0,0,0,0,31.323,31.323,31.323,0,1,0,31.323,0ZM42.988,39.973h0a14.523,14.523,0,0,1-24.613-15.24h0A14.528,14.528,0,1,1,42.988,39.973ZM29.89,2.917V13.98a17.3,17.3,0,0,0-13.363,8.2L6.676,17.17A28.31,28.31,0,0,1,29.89,2.917ZM54.962,47.073,46.1,40.5a17.206,17.206,0,0,0,2.634-9.175A17.421,17.421,0,0,0,32.755,13.991V2.943A28.469,28.469,0,0,1,59.779,31.326,28.133,28.133,0,0,1,54.962,47.073Z" fill="#fff"/>
    <path id="Path_12" data-name="Path 12" d="M18.122,20.629a1.434,1.434,0,0,0-1.433,1.433v7.8a1.433,1.433,0,1,0,2.867,0v-7.8A1.433,1.433,0,0,0,18.122,20.629Z" transform="translate(7.231 8.939)" fill="#fff"/>
    <path id="Path_13" data-name="Path 13" d="M22.544,16.546a1.434,1.434,0,0,0-1.433,1.433V31.627a1.433,1.433,0,1,0,2.867,0V17.979A1.433,1.433,0,0,0,22.544,16.546Z" transform="translate(9.148 7.169)" fill="#fff"/>
    <path id="Path_14" data-name="Path 14" d="M26.876,15.075a1.435,1.435,0,0,0-1.433,1.433v15.92a1.433,1.433,0,0,0,2.867,0V16.508A1.432,1.432,0,0,0,26.876,15.075Z" transform="translate(11.025 6.532)" fill="#fff"/>
  </g>
</svg>
