<svg id="surface1" xmlns="http://www.w3.org/2000/svg" width="59.182" height="59.182" viewBox="0 0 59.182 59.182">
  <path id="Path_7" data-name="Path 7" d="M8.913,401.664H6.376A6.384,6.384,0,0,0,0,408.041v4.643a1.734,1.734,0,0,0,1.734,1.734H9.211a5.169,5.169,0,0,1-.3-1.734Zm0,0" transform="translate(0 -355.236)" fill="#fff"/>
  <path id="Path_8" data-name="Path 8" d="M116.022,321.332h-2.536a6.384,6.384,0,0,0-6.377,6.377v13.928a1.734,1.734,0,0,0,1.734,1.734h7.478a5.18,5.18,0,0,1-.3-1.734Zm0,0" transform="translate(-94.729 -284.19)" fill="#fff"/>
  <path id="Path_9" data-name="Path 9" d="M295.666,17.416,283.285.7A1.734,1.734,0,0,0,280.5.7L268.117,17.416a1.734,1.734,0,0,0,1.393,2.766h4.456V57.448a1.734,1.734,0,0,0,1.734,1.734h12.381a1.734,1.734,0,0,0,1.734-1.734V20.182h4.457a1.734,1.734,0,0,0,1.393-2.766Zm0,0" transform="translate(-236.825)" fill="#fff"/>
  <path id="Path_10" data-name="Path 10" d="M223.132,241H220.6a6.384,6.384,0,0,0-6.377,6.376v23.214a1.734,1.734,0,0,0,1.734,1.734h7.478a5.18,5.18,0,0,1-.3-1.734Zm0,0" transform="translate(-189.457 -213.143)" fill="#fff"/>
</svg>
