<svg xmlns="http://www.w3.org/2000/svg" width="56.438" height="52.913" viewBox="0 0 56.438 52.913">
  <g id="box" transform="translate(0 -15.99)">
    <g id="Group_29" data-name="Group 29" transform="translate(0 15.99)">
      <g id="Group_28" data-name="Group 28" transform="translate(0)">
        <path id="Path_5" data-name="Path 5" d="M56.16,43.184l-6.113-9,6.113-9a1.652,1.652,0,0,0-.853-2.485L35.356,16.078a1.644,1.644,0,0,0-1.9.651l-5.238,7.857-5.238-7.857a1.644,1.644,0,0,0-1.9-.651L1.13,22.692a1.652,1.652,0,0,0-.853,2.485l6.113,9-6.113,9a1.652,1.652,0,0,0,.853,2.485l19.952,6.614a1.653,1.653,0,0,0,1.9-.651l5.238-7.857,5.238,7.857a1.652,1.652,0,0,0,1.9.651l19.952-6.614a1.652,1.652,0,0,0,.853-2.485ZM28.219,39.052,13.6,34.18l14.615-4.872L42.834,34.18Z" transform="translate(0 -15.99)" fill="#fff"/>
      </g>
    </g>
    <g id="Group_31" data-name="Group 31" transform="translate(6.724 49.737)">
      <g id="Group_30" data-name="Group 30">
        <path id="Path_6" data-name="Path 6" d="M90.68,327.822a4.957,4.957,0,0,1-5.7-1.954l-2.486-3.73-2.487,3.73a4.955,4.955,0,0,1-5.7,1.951L61,323.384v9.653a1.652,1.652,0,0,0,1.13,1.568l19.832,6.611a1.489,1.489,0,0,0,.179.05,0,0,0,0,1,0,0h0a1.72,1.72,0,0,0,.35.037,1.683,1.683,0,0,0,.37-.042c.055-.013.108-.027.161-.045l19.833-6.612a1.652,1.652,0,0,0,1.13-1.568v-9.653Z" transform="translate(-61.002 -322.138)" fill="#fff"/>
      </g>
    </g>
  </g>
</svg>
