<svg xmlns="http://www.w3.org/2000/svg" xmlns:xlink="http://www.w3.org/1999/xlink" width="738.967" height="674.129" viewBox="0 0 738.967 674.129">
  <defs>
    <linearGradient id="linear-gradient" x1="0.02" y1="-0.5" x2="0.777" y2="1.078" gradientUnits="objectBoundingBox">
      <stop offset="0" stop-color="#fff"/>
      <stop offset="0.098" stop-color="#f9f9f9"/>
      <stop offset="0.222" stop-color="#e9e9e9"/>
      <stop offset="0.36" stop-color="#cfcfcf"/>
      <stop offset="0.508" stop-color="#ababab"/>
      <stop offset="0.665" stop-color="#7c7c7c"/>
      <stop offset="0.829" stop-color="#434343"/>
      <stop offset="0.996" stop-color="#010101"/>
      <stop offset="1"/>
    </linearGradient>
    <linearGradient id="linear-gradient-2" x1="0.178" y1="-0.047" x2="0.766" y2="0.952" xlink:href="#linear-gradient"/>
    <linearGradient id="linear-gradient-3" x1="0.505" y1="-0.197" x2="0.496" y2="1.011" xlink:href="#linear-gradient"/>
    <linearGradient id="linear-gradient-4" x1="0.5" y1="-0.544" x2="0.5" y2="1.087" xlink:href="#linear-gradient"/>
    <linearGradient id="linear-gradient-5" x1="-0.906" y1="-13.369" x2="-0.648" y2="-11.69" xlink:href="#linear-gradient"/>
    <linearGradient id="linear-gradient-6" x1="-0.988" y1="2.692" x2="0.124" y2="3.702" xlink:href="#linear-gradient"/>
    <linearGradient id="linear-gradient-7" x1="-0.63" y1="1.346" x2="0.507" y2="2.332" xlink:href="#linear-gradient"/>
    <linearGradient id="linear-gradient-8" x1="0.597" y1="0.14" x2="0.418" y2="0.817" xlink:href="#linear-gradient"/>
    <linearGradient id="linear-gradient-9" x1="6.929" y1="1.596" x2="7.141" y2="1.996" xlink:href="#linear-gradient"/>
    <linearGradient id="linear-gradient-10" x1="-13.231" y1="-0.116" x2="-13.001" y2="1.236" xlink:href="#linear-gradient"/>
    <linearGradient id="linear-gradient-11" x1="13.02" y1="0.361" x2="11.93" y2="1.331" xlink:href="#linear-gradient"/>
    <linearGradient id="linear-gradient-12" x1="0.523" y1="-0.528" x2="0.485" y2="1.169" xlink:href="#linear-gradient"/>
    <linearGradient id="linear-gradient-13" x1="4.832" y1="-0.624" x2="4.981" y2="0.09" xlink:href="#linear-gradient"/>
  </defs>
  <g id="Domain_Registration" data-name="Domain Registration" transform="translate(-549.202 -217.602)">
    <g id="Group_142" data-name="Group 142" transform="translate(549.202 217.602)">
      <path id="Path_1" data-name="Path 1" d="M763.634,643.27c-141.7,0-320.9,70.151-134.4,71.47,153.425,1.084,374.857,17.933,490.958,6.406s203.645-56.566,90.187-67.734S763.634,643.27,763.634,643.27Z" transform="translate(-549.202 -51.032)" fill="#eff0f8"/>
      <path id="Path_2" data-name="Path 2" d="M759.862,747.509C692.589,712.194,729.3,633.963,693.1,581.329s-114.63-83.891-101.747-153.215S627.5,501.5,713.567,408.057s152.328-9.343,216.893-29.731,73.421-123.5,120.633-137.624c37.274-11.15,41.84,38.228,24.849,71.36s-19.214,68.586,37.011,98.009,109.746,49.811,83.411,105.881-122.67,65.016-101.689,131.9S1046.036,760.624,992.5,768.266,759.862,747.509,759.862,747.509Z" transform="translate(-533.259 -209.191)" fill="#eff0f8"/>
      <circle id="Ellipse_8" data-name="Ellipse 8" cx="43.963" cy="43.963" r="43.963" transform="translate(311.11 95.522) rotate(-45)" fill="#eff0f8"/>
      <circle id="Ellipse_9" data-name="Ellipse 9" cx="25.444" cy="25.444" r="25.444" transform="translate(415.24 17.522)" fill="#eff0f8"/>
      <circle id="Ellipse_10" data-name="Ellipse 10" cx="14.952" cy="14.952" r="14.952" transform="translate(363.348)" fill="#eff0f8"/>
      <g id="Group_129" data-name="Group 129" transform="translate(62.623 8.331)" opacity="0.5">
        <g id="Group_91" data-name="Group 91" transform="translate(29.359 34.635)">
          <g id="Group_56" data-name="Group 56" transform="translate(0 190.993)">
            <g id="Group_55" data-name="Group 55">
              <path id="Path_3" data-name="Path 3" d="M621.929,399a6.628,6.628,0,0,1-6.617-6.621h3.807a2.813,2.813,0,1,0,2.81-2.813v-3.807a6.621,6.621,0,1,1,0,13.241Z" transform="translate(-615.312 -385.756)" fill="#f9c6b5"/>
            </g>
          </g>
          <g id="Group_58" data-name="Group 58" transform="translate(183.835 130.196)">
            <g id="Group_57" data-name="Group 57">
              <path id="Path_4" data-name="Path 4" d="M754.057,355.3a6.628,6.628,0,0,1-6.617-6.621h3.807a2.813,2.813,0,1,0,2.81-2.813v-3.807a6.621,6.621,0,1,1,0,13.241Z" transform="translate(-747.44 -342.059)" fill="#f9c6b5"/>
            </g>
          </g>
          <g id="Group_60" data-name="Group 60" transform="translate(101.049 167.235)">
            <g id="Group_59" data-name="Group 59">
              <path id="Path_5" data-name="Path 5" d="M694.556,381.921a6.629,6.629,0,0,1-6.617-6.623h3.807a2.813,2.813,0,1,0,2.811-2.812V368.68a6.621,6.621,0,1,1,0,13.241Z" transform="translate(-687.939 -368.68)" fill="#f9c6b5"/>
            </g>
          </g>
          <g id="Group_62" data-name="Group 62" transform="translate(97.126 284.014)">
            <g id="Group_61" data-name="Group 61">
              <path id="Path_6" data-name="Path 6" d="M691.737,465.854a6.628,6.628,0,0,1-6.617-6.621h3.807a2.813,2.813,0,1,0,2.81-2.812v-3.808a6.621,6.621,0,1,1,0,13.241Z" transform="translate(-685.12 -452.613)" fill="#f9c6b5"/>
            </g>
          </g>
          <g id="Group_64" data-name="Group 64" transform="translate(111.489 404.025)">
            <g id="Group_63" data-name="Group 63">
              <path id="Path_7" data-name="Path 7" d="M702.06,552.11a6.628,6.628,0,0,1-6.617-6.621h3.807a2.813,2.813,0,1,0,2.81-2.812v-3.808a6.621,6.621,0,1,1,0,13.241Z" transform="translate(-695.443 -538.869)" fill="#f9c6b5"/>
            </g>
          </g>
          <g id="Group_66" data-name="Group 66" transform="translate(41.826 265.826)">
            <g id="Group_65" data-name="Group 65">
              <path id="Path_8" data-name="Path 8" d="M651.991,452.782a6.628,6.628,0,0,1-6.617-6.621h3.807a2.813,2.813,0,1,0,2.81-2.813v-3.807a6.621,6.621,0,1,1,0,13.241Z" transform="translate(-645.374 -439.541)" fill="#f9c6b5"/>
            </g>
          </g>
          <g id="Group_68" data-name="Group 68" transform="translate(274.466 168.164)">
            <g id="Group_67" data-name="Group 67">
              <path id="Path_9" data-name="Path 9" d="M819.2,382.589a6.628,6.628,0,0,1-6.617-6.621h3.807a2.813,2.813,0,1,0,2.811-2.813v-3.807a6.621,6.621,0,1,1,0,13.241Z" transform="translate(-812.58 -369.348)" fill="#f9c6b5"/>
            </g>
          </g>
          <g id="Group_70" data-name="Group 70" transform="translate(458.668 237.084)">
            <g id="Group_69" data-name="Group 69">
              <path id="Path_10" data-name="Path 10" d="M951.591,432.124a6.629,6.629,0,0,1-6.619-6.621h3.808a2.813,2.813,0,1,0,2.81-2.813v-3.807a6.621,6.621,0,1,1,0,13.241Z" transform="translate(-944.972 -418.883)" fill="#f9c6b5"/>
            </g>
          </g>
          <g id="Group_72" data-name="Group 72" transform="translate(427.372 355.414)">
            <g id="Group_71" data-name="Group 71">
              <path id="Path_11" data-name="Path 11" d="M929.1,517.172a6.628,6.628,0,0,1-6.619-6.621h3.808a2.813,2.813,0,1,0,2.81-2.813v-3.807a6.621,6.621,0,1,1,0,13.241Z" transform="translate(-922.478 -503.931)" fill="#f9c6b5"/>
            </g>
          </g>
          <g id="Group_74" data-name="Group 74" transform="translate(515.883 259.509)">
            <g id="Group_73" data-name="Group 73">
              <path id="Path_12" data-name="Path 12" d="M992.713,448.242a6.629,6.629,0,0,1-6.618-6.621H989.9a2.813,2.813,0,1,0,2.81-2.812V435a6.621,6.621,0,1,1,0,13.241Z" transform="translate(-986.094 -435.001)" fill="#f9c6b5"/>
            </g>
          </g>
          <g id="Group_76" data-name="Group 76" transform="translate(384.336 148.159)">
            <g id="Group_75" data-name="Group 75">
              <path id="Path_13" data-name="Path 13" d="M898.166,368.211a6.629,6.629,0,0,1-6.619-6.621h3.808a2.813,2.813,0,1,0,2.811-2.813V354.97a6.621,6.621,0,1,1,0,13.241Z" transform="translate(-891.547 -354.97)" fill="#f9c6b5"/>
            </g>
          </g>
          <g id="Group_78" data-name="Group 78" transform="translate(420.804 19.363)">
            <g id="Group_77" data-name="Group 77">
              <path id="Path_14" data-name="Path 14" d="M924.377,275.641a6.629,6.629,0,0,1-6.619-6.621h3.807a2.813,2.813,0,1,0,2.812-2.813V262.4a6.621,6.621,0,1,1,0,13.241Z" transform="translate(-917.758 -262.4)" fill="#f9c6b5"/>
            </g>
          </g>
          <g id="Group_80" data-name="Group 80" transform="translate(358.727 83.612)">
            <g id="Group_79" data-name="Group 79">
              <path id="Path_15" data-name="Path 15" d="M879.758,321.819a6.628,6.628,0,0,1-6.617-6.621h3.807a2.813,2.813,0,1,0,2.81-2.812v-3.808a6.621,6.621,0,1,1,0,13.241Z" transform="translate(-873.141 -308.578)" fill="#f9c6b5"/>
            </g>
          </g>
          <g id="Group_82" data-name="Group 82" transform="translate(420.256 78.636)">
            <g id="Group_81" data-name="Group 81">
              <path id="Path_16" data-name="Path 16" d="M923.981,318.241a6.628,6.628,0,0,1-6.617-6.621h3.807a2.813,2.813,0,1,0,2.81-2.812V305a6.62,6.62,0,1,1,0,13.24Z" transform="translate(-917.364 -305.001)" fill="#f9c6b5"/>
            </g>
          </g>
          <g id="Group_84" data-name="Group 84" transform="translate(282.601 31.098)">
            <g id="Group_83" data-name="Group 83">
              <path id="Path_17" data-name="Path 17" d="M825.044,284.075a6.628,6.628,0,0,1-6.617-6.621h3.807a2.813,2.813,0,1,0,2.81-2.813v-3.807a6.621,6.621,0,1,1,0,13.241Z" transform="translate(-818.427 -270.834)" fill="#f9c6b5"/>
            </g>
          </g>
          <g id="Group_86" data-name="Group 86" transform="translate(267.151 65.981)">
            <g id="Group_85" data-name="Group 85">
              <path id="Path_18" data-name="Path 18" d="M813.939,309.147a6.628,6.628,0,0,1-6.617-6.621h3.807a2.813,2.813,0,1,0,2.811-2.813v-3.807a6.621,6.621,0,1,1,0,13.241Z" transform="translate(-807.322 -295.906)" fill="#f9c6b5"/>
            </g>
          </g>
          <g id="Group_88" data-name="Group 88" transform="translate(345.139)">
            <g id="Group_87" data-name="Group 87">
              <path id="Path_19" data-name="Path 19" d="M869.992,261.724a6.628,6.628,0,0,1-6.617-6.621h3.807a2.813,2.813,0,1,0,2.81-2.813v-3.807a6.621,6.621,0,1,1,0,13.241Z" transform="translate(-863.375 -248.483)" fill="#f9c6b5"/>
            </g>
          </g>
          <g id="Group_90" data-name="Group 90" transform="translate(421.966 282.981)">
            <g id="Group_89" data-name="Group 89">
              <path id="Path_20" data-name="Path 20" d="M925.21,465.112a6.628,6.628,0,0,1-6.617-6.621H922.4a2.813,2.813,0,1,0,2.81-2.813v-3.807a6.621,6.621,0,1,1,0,13.241Z" transform="translate(-918.593 -451.871)" fill="#f9c6b5"/>
            </g>
          </g>
        </g>
        <g id="Group_128" data-name="Group 128">
          <g id="Group_93" data-name="Group 93" transform="translate(0 217.885)">
            <g id="Group_92" data-name="Group 92">
              <path id="Path_21" data-name="Path 21" d="M600.832,393.432a6.621,6.621,0,1,1,6.621-6.621h-3.807a2.815,2.815,0,1,0-2.815,2.813Z" transform="translate(-594.211 -380.191)" fill="#b5eff9"/>
            </g>
          </g>
          <g id="Group_95" data-name="Group 95" transform="translate(34.078 266.075)">
            <g id="Group_94" data-name="Group 94">
              <path id="Path_22" data-name="Path 22" d="M625.325,428.068a6.621,6.621,0,1,1,6.621-6.621H628.14a2.815,2.815,0,1,0-2.815,2.815Z" transform="translate(-618.704 -414.827)" fill="#b5eff9"/>
            </g>
          </g>
          <g id="Group_97" data-name="Group 97" transform="translate(120.987 293.27)">
            <g id="Group_96" data-name="Group 96">
              <path id="Path_23" data-name="Path 23" d="M687.789,447.614a6.621,6.621,0,1,1,6.621-6.623H690.6a2.815,2.815,0,1,0-2.815,2.815Z" transform="translate(-681.168 -434.373)" fill="#b5eff9"/>
            </g>
          </g>
          <g id="Group_99" data-name="Group 99" transform="translate(106.659 367.139)">
            <g id="Group_98" data-name="Group 98">
              <path id="Path_24" data-name="Path 24" d="M677.492,500.706a6.621,6.621,0,1,1,6.621-6.621h-3.807a2.815,2.815,0,1,0-2.815,2.815Z" transform="translate(-670.87 -487.465)" fill="#b5eff9"/>
            </g>
          </g>
          <g id="Group_101" data-name="Group 101" transform="translate(133.588 430.107)">
            <g id="Group_100" data-name="Group 100">
              <path id="Path_25" data-name="Path 25" d="M696.846,545.963a6.621,6.621,0,1,1,6.621-6.621h-3.807a2.815,2.815,0,1,0-2.815,2.813Z" transform="translate(-690.225 -532.722)" fill="#b5eff9"/>
            </g>
          </g>
          <g id="Group_103" data-name="Group 103" transform="translate(163.389 168.782)">
            <g id="Group_102" data-name="Group 102">
              <path id="Path_26" data-name="Path 26" d="M718.265,358.14a6.621,6.621,0,1,1,6.621-6.621H721.08a2.815,2.815,0,1,0-2.815,2.815Z" transform="translate(-711.644 -344.899)" fill="#b5eff9"/>
            </g>
          </g>
          <g id="Group_105" data-name="Group 105" transform="translate(288.293 178.47)">
            <g id="Group_104" data-name="Group 104">
              <path id="Path_27" data-name="Path 27" d="M808.038,365.1a6.621,6.621,0,1,1,6.621-6.621h-3.807a2.815,2.815,0,1,0-2.815,2.815Z" transform="translate(-801.417 -351.862)" fill="#b5eff9"/>
            </g>
          </g>
          <g id="Group_107" data-name="Group 107" transform="translate(374.492 179.213)">
            <g id="Group_106" data-name="Group 106">
              <path id="Path_28" data-name="Path 28" d="M869.992,365.637a6.621,6.621,0,1,1,6.621-6.623h-3.807a2.815,2.815,0,1,0-2.815,2.815Z" transform="translate(-863.371 -352.396)" fill="#b5eff9"/>
            </g>
          </g>
          <g id="Group_109" data-name="Group 109" transform="translate(496.297 226.955)">
            <g id="Group_108" data-name="Group 108">
              <path id="Path_29" data-name="Path 29" d="M957.537,399.951a6.621,6.621,0,1,1,6.623-6.621h-3.808a2.814,2.814,0,1,0-2.815,2.815Z" transform="translate(-950.916 -386.71)" fill="#b5eff9"/>
            </g>
          </g>
          <g id="Group_111" data-name="Group 111" transform="translate(492.449 340.311)">
            <g id="Group_110" data-name="Group 110">
              <path id="Path_30" data-name="Path 30" d="M954.771,481.424a6.621,6.621,0,1,1,6.621-6.621h-3.807a2.815,2.815,0,1,0-2.815,2.815Z" transform="translate(-948.15 -468.183)" fill="#b5eff9"/>
            </g>
          </g>
          <g id="Group_113" data-name="Group 113" transform="translate(443.777 373.422)">
            <g id="Group_112" data-name="Group 112">
              <path id="Path_31" data-name="Path 31" d="M919.789,505.222a6.621,6.621,0,1,1,6.621-6.623H922.6a2.815,2.815,0,1,0-2.815,2.815Z" transform="translate(-913.168 -491.981)" fill="#b5eff9"/>
            </g>
          </g>
          <g id="Group_115" data-name="Group 115" transform="translate(444.367 271.718)">
            <g id="Group_114" data-name="Group 114">
              <path id="Path_32" data-name="Path 32" d="M920.213,432.124a6.621,6.621,0,1,1,6.621-6.621h-3.807a2.815,2.815,0,1,0-2.815,2.813Z" transform="translate(-913.592 -418.883)" fill="#b5eff9"/>
            </g>
          </g>
          <g id="Group_117" data-name="Group 117" transform="translate(555.823 234.225)">
            <g id="Group_116" data-name="Group 116">
              <path id="Path_33" data-name="Path 33" d="M1000.321,405.178a6.621,6.621,0,1,1,6.621-6.623h-3.807a2.815,2.815,0,1,0-2.815,2.815Z" transform="translate(-993.699 -391.935)" fill="#b5eff9"/>
            </g>
          </g>
          <g id="Group_119" data-name="Group 119" transform="translate(430.526 68.706)">
            <g id="Group_118" data-name="Group 118">
              <path id="Path_34" data-name="Path 34" d="M910.265,286.212a6.621,6.621,0,1,1,6.623-6.621H913.08a2.814,2.814,0,1,0-2.815,2.815Z" transform="translate(-903.644 -272.971)" fill="#b5eff9"/>
            </g>
          </g>
          <g id="Group_121" data-name="Group 121" transform="translate(370.391 17.712)">
            <g id="Group_120" data-name="Group 120">
              <path id="Path_35" data-name="Path 35" d="M867.044,249.561a6.621,6.621,0,1,1,6.621-6.621h-3.807a2.815,2.815,0,1,0-2.815,2.815Z" transform="translate(-860.423 -236.32)" fill="#b5eff9"/>
            </g>
          </g>
          <g id="Group_123" data-name="Group 123" transform="translate(278.651 75.209)">
            <g id="Group_122" data-name="Group 122">
              <path id="Path_36" data-name="Path 36" d="M801.108,290.886a6.621,6.621,0,1,1,6.621-6.621h-3.807a2.815,2.815,0,1,0-2.815,2.813Z" transform="translate(-794.487 -277.645)" fill="#b5eff9"/>
            </g>
          </g>
          <g id="Group_125" data-name="Group 125" transform="translate(325.199 105.575)">
            <g id="Group_124" data-name="Group 124">
              <path id="Path_37" data-name="Path 37" d="M834.563,312.711a6.621,6.621,0,1,1,6.623-6.621h-3.808a2.814,2.814,0,1,0-2.815,2.815Z" transform="translate(-827.942 -299.47)" fill="#b5eff9"/>
            </g>
          </g>
          <g id="Group_127" data-name="Group 127" transform="translate(310.965)">
            <g id="Group_126" data-name="Group 126">
              <path id="Path_38" data-name="Path 38" d="M824.333,236.831a6.621,6.621,0,1,1,6.621-6.621h-3.807a2.815,2.815,0,1,0-2.815,2.815Z" transform="translate(-817.712 -223.59)" fill="#b5eff9"/>
            </g>
          </g>
        </g>
      </g>
      <g id="Group_135" data-name="Group 135" transform="translate(500.583 366.757)">
        <g id="Group_130" data-name="Group 130" transform="translate(3.626 6.096)">
          <path id="Path_39" data-name="Path 39" d="M941.995,639.751c23.4-17.968,33.945-31.816,24.067-45.206s-8.352-14.676,2.036-30.394-.2-16.632-4.679-25.887,4.5-18.572,9.734-31.389-14.327-29.043-27.388-17.151,4.838,21.409-4.027,35.841-34.213,19.022-28.44,32.111,26.555,18.434,13.623,32.244-21.6,23.444-9.62,36.506S941.995,639.751,941.995,639.751Z" transform="translate(-911.594 -485.584)" fill="#dde6fc"/>
          <path id="Path_40" data-name="Path 40" d="M948.58,504.5q-5.86,44.165-11.373,88.329c-1.877,14.722-3.992,29.443-5.375,44.162-1.276,14.719-2.631,29.438-3.1,44.153h.413c2.841-14.726,4.793-29.448,6.824-44.169,1.926-14.722,3.118-29.439,4.547-44.159q4.41-44.159,8.473-88.315Z" transform="translate(-904.886 -478.18)" fill="#8497fa"/>
        </g>
        <g id="Group_132" data-name="Group 132" transform="translate(19.191)">
          <path id="Path_41" data-name="Path 41" d="M930.756,552.406c2.162,1.18,5.745,1.715,9.9,2.328,6.118.91,13.557,2.04,19.1,5.885a46.475,46.475,0,0,1,5.71-21.826c.4-.736.867-1.423,1.286-2.144-1.8-5.757-7.011-9.668-11.623-13.12-2.955-2.211-5.511-4.121-6.756-6.223a1.015,1.015,0,0,1,.465-1.37,1.053,1.053,0,0,1,1.444.283c1.076,1.809,3.5,3.623,6.307,5.721,4.167,3.119,9.226,6.939,11.594,12.324A112.89,112.89,0,0,1,986.3,512.6a.8.8,0,0,1-.36-.876c1.341-5.785-.946-11.3-2.962-16.17-1.28-3.089-2.389-5.759-2.388-8.081a1.08,1.08,0,0,1,1-1.012.848.848,0,0,1,.995.814c0,2,1.048,4.533,2.268,7.467,1.9,4.589,4.2,10.244,3.193,16.2,2.838-2.631,5.764-5.176,8.747-7.652a1.052,1.052,0,0,1,.6-.605c.075-.029.152-.045.227-.072q4.51-3.717,9.1-7.277c-2.509,2.262-5.027,4.515-7.53,6.777,6.04-1.747,12.322-.864,17.461-.117,3.427.5,6.385.931,8.557.54a.865.865,0,0,1,1.08.719,1.056,1.056,0,0,1-.9,1.08c-2.522.459-5.642,0-9.248-.523-5.686-.826-12.127-1.766-18.149.558a1,1,0,0,1-1.026-.147.083.083,0,0,1-.021-.036,161.864,161.864,0,0,0-11.972,11.895q-2.413,2.609-4.7,5.314c6.285-1.491,12.707-.445,18,.419,3.675.6,6.847,1.12,9.191.736a.928.928,0,0,1,1.146.8,1.144,1.144,0,0,1-.994,1.151c-2.723.449-6.068-.1-9.935-.73-6.1-.995-13.008-2.126-19.532.276a.228.228,0,0,0-.057.007,83.35,83.35,0,0,0-10.112,15.6,48.066,48.066,0,0,0-2.46,5.953c7.5-1.16,14.772.966,20.714,2.735,3.946,1.18,7.352,2.193,9.991,2.076a1.012,1.012,0,0,1,1.134,1.055,1.323,1.323,0,0,1-1.275,1.167c-3.067.141-6.657-.931-10.811-2.169-6.246-1.86-13.286-3.918-20.48-2.516-.455,1.578-.861,3.161-1.172,4.749a46.966,46.966,0,0,0-.357,13.25,78.194,78.194,0,0,0,2.478,11.338c5.034-2.485,10.788-2.958,15.533-3.346,3.306-.267,6.158-.5,8.082-1.3a.867.867,0,0,1,1.177.41.917.917,0,0,1-.575,1.138c-2.233.925-5.241,1.169-8.719,1.453-4.892.4-10.359.859-15.053,3.285,1.258,4.187,2.724,8.338,4.152,12.516,1.505,4.578,2.933,9.225,4.13,13.952,3.052-2.783,7.028-4.551,10.356-6.013a24.9,24.9,0,0,0,5.865-3.114.778.778,0,0,1,1.045-.028.653.653,0,0,1-.083.967,25.713,25.713,0,0,1-6.31,3.4c-3.617,1.589-7.656,3.361-10.523,6.287a98.672,98.672,0,0,1,2.051,10.779,91.487,91.487,0,0,1-.505,27.649c-3.08,18.59-11.37,36.445-21.431,53.1,4.26-8.658,8.633-17.276,11.686-26.22a121.222,121.222,0,0,0,7.015-26.964,98.121,98.121,0,0,0-.011-26.869c-.018-.135-.052-.267-.071-.4a.7.7,0,0,1-.316-.069c-3.825-2.126-8.789-1.885-13.171-1.677-2.78.134-5.184.25-6.918-.263a.605.605,0,0,1-.387-.856.836.836,0,0,1,.975-.452,22.455,22.455,0,0,0,6.414.2c4.071-.195,9.062-.406,13.108,1.457a145.326,145.326,0,0,0-6.37-23.589c-.118-.36-.239-.726-.359-1.088-5.4-.837-11.157,1.056-16.265,2.759-3.371,1.124-6.286,2.1-8.635,2.115a.776.776,0,0,1-.829-.85,1.024,1.024,0,0,1,1.017-.861c2.022-.017,4.788-.937,7.99-2.008,4.756-1.586,10.558-3.5,16.119-2.986-2.478-7.487-4.957-15.1-5.924-23.228-.1-.953-.153-1.917-.2-2.883-5.169-4.586-12.919-5.743-19.768-6.762-4.37-.648-8.151-1.209-10.659-2.584a1,1,0,0,1-.288-1.512A1.337,1.337,0,0,1,930.756,552.406Z" transform="translate(-920.405 -479.147)" fill="#e6e9f8"/>
          <g id="Group_131" data-name="Group 131">
            <path id="Path_42" data-name="Path 42" d="M973.964,505.618a.91.91,0,0,0,1.308-.561c3.066-12.81-3.629-15.982-4.278-22.446-.573-5.7-3.762,7.526-7.113,11.061C961.073,496.636,970.76,503.483,973.964,505.618Z" transform="translate(-906.894 -481.203)" fill="#b5eff9"/>
            <path id="Path_43" data-name="Path 43" d="M957.178,522.438a.941.941,0,0,0,1.024-1.1c-3.776-13-12.259-12.807-16.387-18.36-3.645-4.9.234,8.53-1.261,13.261C939.3,520.2,952.787,521.97,957.178,522.438Z" transform="translate(-915.965 -473.098)" fill="#b5eff9"/>
            <path id="Path_44" data-name="Path 44" d="M952.056,541.4a.934.934,0,0,0,.449-1.533c-11.366-10.392-20.2-6.112-27.707-9.336-6.627-2.847,5.1,7.907,6.211,13.076C931.946,547.938,947.162,543.079,952.056,541.4Z" transform="translate(-922.781 -462.085)" fill="#b5eff9"/>
            <path id="Path_45" data-name="Path 45" d="M956.748,562.786a.646.646,0,0,0-.312-1.12c-12.356-2.542-16.867,3.243-23.529,3.851-5.88.537,6.879,3.179,9.8,6.034C945.159,573.944,953.965,565.559,956.748,562.786Z" transform="translate(-919.417 -449.966)" fill="#b5eff9"/>
            <path id="Path_46" data-name="Path 46" d="M961.195,580.54a.544.544,0,0,0,.064-.954c-8.434-4.77-13.276-1.213-18.343-2.223-4.473-.892,4.231,4.047,5.634,6.954C949.725,586.754,958.416,582.106,961.195,580.54Z" transform="translate(-915.397 -443.703)" fill="#b5eff9"/>
            <path id="Path_47" data-name="Path 47" d="M985.882,499.159a.768.768,0,0,1,.352-1.269c13.312-5.233,18.076.068,25.225-.628,6.31-.615-7.435,4.809-10.617,8.469C998.175,508.8,988.833,501.575,985.882,499.159Z" transform="translate(-898.175 -475.585)" fill="#b5eff9"/>
            <path id="Path_48" data-name="Path 48" d="M972.2,513.358a.83.83,0,0,1,.4-1.362c14.428-5.412,19.44.4,27.144-.225,6.8-.551-8.1,5.059-11.6,8.953C985.214,523.989,975.319,516.019,972.2,513.358Z" transform="translate(-903.534 -470.063)" fill="#b5eff9"/>
            <path id="Path_49" data-name="Path 49" d="M962.8,531.328a.967.967,0,0,1,.661-1.486c16.728-4.173,21.315,3.079,29.887,3.414,7.565.3-9.711,4.629-14.178,8.562C975.428,545.117,965.811,534.762,962.8,531.328Z" transform="translate(-907.191 -462.673)" fill="#b5eff9"/>
            <path id="Path_50" data-name="Path 50" d="M961.048,553.094a.674.674,0,0,1,.018-1.19c11.1-7.362,16.812-3.679,23.284-5.77,5.714-1.848-5.739,5.771-7.805,9.653C974.813,559.041,964.376,554.611,961.048,553.094Z" transform="translate(-907.942 -455.903)" fill="#b5eff9"/>
            <path id="Path_51" data-name="Path 51" d="M965.431,573.7a.514.514,0,0,1-.365-.853c6.272-8.258,11.884-7.182,16.244-10.429,3.849-2.866-2.617,5.672-2.984,9C978.017,574.2,968.5,573.875,965.431,573.7Z" transform="translate(-906.281 -449.648)" fill="#b5eff9"/>
            <path id="Path_52" data-name="Path 52" d="M981.805,499.376a.661.661,0,0,0,.978.626c11.971-4.918,12.05-11.476,17.24-15.53,4.58-3.58-7.792,1.485-12.064,1.049C984.376,485.156,982.362,495.9,981.805,499.376Z" transform="translate(-899.686 -480.427)" fill="#b5eff9"/>
          </g>
        </g>
        <g id="Group_134" data-name="Group 134" transform="translate(50.672 49.974)">
          <path id="Path_53" data-name="Path 53" d="M1018.127,541.135c.943,2.276,3.4,4.938,6.253,8.02,4.195,4.544,9.283,10.087,11.192,16.56a46.482,46.482,0,0,1,18.132-13.426c.769-.323,1.568-.565,2.346-.864,2.207-5.613.6-11.927-.83-17.509-.917-3.574-1.711-6.664-1.364-9.084a1.013,1.013,0,0,1,1.222-.775,1.052,1.052,0,0,1,.948,1.126c-.295,2.083.454,5.014,1.327,8.411,1.291,5.041,2.838,11.189,1.308,16.87a112.921,112.921,0,0,1,27.694-5.518.8.8,0,0,1,.269-.909c4.672-3.667,6.347-9.4,7.829-14.456.939-3.208,1.75-5.984,3.207-7.793a1.079,1.079,0,0,1,1.41-.163.847.847,0,0,1,.264,1.258c-1.252,1.558-2.024,4.188-2.913,7.239-1.4,4.765-3.15,10.615-7.669,14.623,3.861-.269,7.736-.417,11.612-.479a1.06,1.06,0,0,1,.843-.1c.078.024.147.06.224.086,3.894-.046,7.786-.038,11.647.033-3.373.189-6.745.366-10.115.559,5.8,2.425,10.142,7.051,13.678,10.855,2.354,2.541,4.391,4.728,6.328,5.785a.865.865,0,0,1,.391,1.237,1.057,1.057,0,0,1-1.38.277c-2.253-1.226-4.4-3.535-6.877-6.205-3.912-4.209-8.341-8.98-14.489-10.943a1,1,0,0,1-.705-.758.075.075,0,0,1,.007-.042,162.01,162.01,0,0,0-16.785,1.761c-2.343.348-4.68.742-7,1.191,5.832,2.779,10.179,7.62,13.762,11.611,2.483,2.774,4.632,5.165,6.7,6.336a.928.928,0,0,1,.394,1.338,1.145,1.145,0,0,1-1.494.274c-2.4-1.358-4.667-3.88-7.284-6.8-4.127-4.6-8.8-9.81-15.391-12.029a.226.226,0,0,0-.046-.031,83.421,83.421,0,0,0-17.657,5.812,48.321,48.321,0,0,0-5.649,3.1c6.568,3.8,10.9,10.013,14.424,15.118,2.333,3.392,4.354,6.317,6.484,7.881a1.013,1.013,0,0,1,.221,1.533,1.325,1.325,0,0,1-1.725.11c-2.476-1.813-4.6-4.9-7.061-8.468-3.7-5.365-7.9-11.381-14.381-14.8-1.344.943-2.652,1.923-3.889,2.965a46.955,46.955,0,0,0-8.586,10.1,78.357,78.357,0,0,0-5.177,10.386c5.479,1.22,10.26,4.458,14.2,7.131,2.742,1.866,5.112,3.471,7.108,4.059a.866.866,0,0,1,.661,1.057.917.917,0,0,1-1.162.526c-2.319-.679-4.817-2.375-7.7-4.335-4.063-2.755-8.608-5.824-13.787-6.876-1.645,4.05-3.105,8.2-4.614,12.354-1.7,4.511-3.5,9.027-5.528,13.46,4.122-.255,8.328.859,11.837,1.807a24.924,24.924,0,0,0,6.521,1.249.778.778,0,0,1,.832.634.652.652,0,0,1-.672.7,25.74,25.74,0,0,1-7.047-1.305c-3.815-1.031-8.074-2.182-12.139-1.7a98.906,98.906,0,0,1-5.159,9.684A91.546,91.546,0,0,1,995.4,642.11c-14.054,12.551-31.706,21.265-49.988,27.937,8.747-4.074,17.557-8.046,25.542-13.1a121.27,121.27,0,0,0,22.368-16.611,98.127,98.127,0,0,0,16.837-20.94c.071-.118.127-.241.2-.359a.708.708,0,0,1-.2-.252c-1.647-4.054-5.666-6.979-9.211-9.563-2.25-1.639-4.195-3.055-5.224-4.541a.606.606,0,0,1,.235-.91.836.836,0,0,1,1.042.26,22.471,22.471,0,0,0,4.871,4.178c3.295,2.4,7.314,5.364,9.3,9.353a145.254,145.254,0,0,0,9.826-22.37c.135-.356.27-.717.4-1.074-3.684-4.038-9.355-6.171-14.4-8.046-3.332-1.237-6.214-2.307-8.053-3.766a.774.774,0,0,1-.114-1.181,1.024,1.024,0,0,1,1.333-.033c1.585,1.255,4.316,2.271,7.484,3.445,4.7,1.746,10.417,3.893,14.43,7.778,2.763-7.385,5.6-14.869,9.947-21.81.52-.8,1.082-1.589,1.656-2.37-1.153-6.813-6.467-12.574-11.164-17.66-3-3.246-5.592-6.051-6.684-8.694a1,1,0,0,1,.723-1.359A1.337,1.337,0,0,1,1018.127,541.135Z" transform="translate(-945.407 -515.431)" fill="#e6e9f8"/>
          <g id="Group_133" data-name="Group 133" transform="translate(47.083)">
            <path id="Path_54" data-name="Path 54" d="M1052.1,539.785a.909.909,0,0,0,1.369.384c10.421-8.059,7.193-14.727,10.74-20.17,3.13-4.8-7.65,3.5-12.476,4.159C1047.685,524.706,1050.941,536.112,1052.1,539.785Z" transform="translate(-951.652 -516.577)" fill="#b5eff9"/>
            <path id="Path_55" data-name="Path 55" d="M1028.493,543.539a.94.94,0,0,0,1.489-.218c5.206-12.491-1.521-17.663-1.257-24.578.234-6.1-5.166,6.792-9.294,9.542C1015.968,530.588,1025.365,540.421,1028.493,543.539Z" transform="translate(-963.817 -517.121)" fill="#b5eff9"/>
            <path id="Path_56" data-name="Path 56" d="M1010.6,555.12a.934.934,0,0,0,1.312-.913c-2.34-15.221-11.906-17.424-15.733-24.642-3.38-6.372-.988,9.354-3.36,14.082C990.826,547.61,1005.727,553.364,1010.6,555.12Z" transform="translate(-974.009 -512.837)" fill="#b5eff9"/>
            <path id="Path_57" data-name="Path 57" d="M1001.1,573.691a.647.647,0,0,0,.459-1.069c-8.033-9.726-15.174-8.046-20.746-11.748-4.917-3.268,3.367,6.788,3.854,10.845C985.074,575.12,997.192,574.107,1001.1,573.691Z" transform="translate(-979.242 -500.25)" fill="#b5eff9"/>
            <path id="Path_58" data-name="Path 58" d="M992.643,591.305a.545.545,0,0,0,.65-.7c-3.583-9-9.585-9.268-12.9-13.232-2.926-3.5.76,5.8.029,8.949C979.81,588.957,989.5,590.784,992.643,591.305Z" transform="translate(-979.247 -493.846)" fill="#b5eff9"/>
            <path id="Path_59" data-name="Path 59" d="M1063.381,542.857c-.111-.536.484-.95,1.069-.768,13.653,4.269,14.04,11.385,20.048,15.324,5.3,3.477-8.808-.916-13.582-.058C1066.914,558.074,1064.166,546.588,1063.381,542.857Z" transform="translate(-946.328 -507.366)" fill="#b5eff9"/>
            <path id="Path_60" data-name="Path 60" d="M1043.829,545.332c-.109-.577.544-1.014,1.17-.807,14.634,4.829,14.9,12.5,21.29,16.841,5.642,3.834-9.482-1.135-14.649-.295C1047.308,561.776,1044.594,549.362,1043.829,545.332Z" transform="translate(-953.978 -506.417)" fill="#b5eff9"/>
            <path id="Path_61" data-name="Path 61" d="M1025.091,553.649a.968.968,0,0,1,1.447-.743c15.648,7.235,14.677,15.761,21.144,21.4,5.709,4.974-10.467-2.481-16.414-2.216C1026.284,572.308,1025.283,558.211,1025.091,553.649Z" transform="translate(-961.307 -503.158)" fill="#b5eff9"/>
            <path id="Path_62" data-name="Path 62" d="M1010.851,568.519a.672.672,0,0,1,.758-.914c13.261,1.22,15.4,7.672,21.759,10.1,5.609,2.144-8.09.9-12.132,2.628C1017.846,581.781,1012.492,571.787,1010.851,568.519Z" transform="translate(-966.905 -497.366)" fill="#b5eff9"/>
            <path id="Path_63" data-name="Path 63" d="M1002.164,586.492a.513.513,0,0,1,.25-.892c10.063-2.5,13.762,1.855,19.193,2.058,4.8.18-5.595,2.779-7.967,5.14C1011.653,594.778,1004.443,588.556,1002.164,586.492Z" transform="translate(-970.348 -490.624)" fill="#b5eff9"/>
            <path id="Path_64" data-name="Path 64" d="M1062.384,539.625a.66.66,0,0,0,.37,1.1c12.409,3.674,16.582-1.386,23.167-1.291,5.813.084-7-3.727-10.057-6.747C1073.3,530.155,1065,537.261,1062.384,539.625Z" transform="translate(-946.786 -511.239)" fill="#b5eff9"/>
          </g>
        </g>
        <path id="Path_65" data-name="Path 65" d="M925.242,661.651c12.66-.029,10.822,23.618,27.074,23.37,19.17-.292,13.826-14.4,46.738-24.618,18.572-7.363,17.141-22.376,3.908-16.411s-28.145,16.313-25.866,4.687,12.341-22.612,39.315-30.319S1055.226,590,1042.1,587.629s-32.446,14.119-48.05,27.874-26.693,6.986-15.632-4.864,33.654-19.351,44.14-39.069,5.883-24.454-6.937-24.226-38.3,29.59-42.685,45.1-14.391,20.83-12.728,10.187,9.28-29.789.163-29.3S947.147,588.6,950.753,594.2s5.624,10.187-3.744,14.715-12.752-23.732-19.977-16.636-8.37,31.269,3.772,31.51,17.216,21.178,4.351,24.077-19.416-18.08-24.5-8.419S912.584,661.682,925.242,661.651Zm4.369-46.387c-4.534-1.091-4.1-6.666-3.1-10.981s3.558-1.333,7.946,4.278c0,0,3.349,3.26,4.431,5.976S934.146,616.355,929.611,615.264Zm69.988-37.4c2.5-6.734-1.4-11.694,8.2-16.6s9.728-8.426,9.68-1.931-1.915,11.608-10.794,15.623C1006.682,574.951,997.1,584.594,999.6,577.86Zm17.378,30.957c-.225-1.119,8.664-8.878,8.664-8.878,7.3-6.446,17.076-6.066,15.057-3s-7.627,8.34-12.665,9.177S1017.2,609.936,1016.977,608.818Zm-22.362,44.7c6.954-4.164,16.1-5.039,9.656-.594s-11.523,6.454-14.009,5.62S990.939,655.722,994.615,653.52Zm-37.2-63.922c-4.028-4.519-5.333-7.751-1.185-9.908s5.544,1.284,4.3,4.712A14.27,14.27,0,0,1,957.417,589.6Zm-14.068,61.674c15.5-9.252,13.535-15.512,12.711-25.484-.975-11.79,6.267-5.906,12.132,3.235s-6.211,14.043-4.924,23.265c0,0,0,12.216-6.816,13.575C949.461,667.257,931.636,658.263,943.349,651.272Zm-30.259-6.147c.711-3.26,2.493.611,6.5,3.693,6.823,5.25.344,5.17-3.6,4.458S912.379,648.383,913.09,645.125Z" transform="translate(-908.988 -455.322)" fill="#ddf7fc"/>
      </g>
      <g id="Group_141" data-name="Group 141" transform="translate(20.705 274.767)">
        <g id="Group_136" data-name="Group 136" transform="translate(145.713)">
          <path id="Path_66" data-name="Path 66" d="M751.912,640.285c-36.57-17.12-54.713-33.424-45.352-57.515s6.944-25.381-11.533-44.542-4.547-24.917-1.226-40.6S682.39,471.768,671.663,454.8s10.79-49.312,31.742-36.973-.282,33.975,15.778,51.848,51.364,14.211,47.418,36.15-30.252,38.543-8.917,53.8,35.745,26.046,23.466,50.519S751.912,640.285,751.912,640.285Z" transform="translate(-668.812 -415.086)" fill="#ddf7fc"/>
          <path id="Path_67" data-name="Path 67" d="M689.276,443.7Q709.92,507.222,730.1,570.881c6.78,21.2,13.88,42.311,20,63.716,5.973,21.447,12.052,42.864,16.941,64.644l-.555.168c-8.073-20.81-14.954-41.982-21.941-63.122-6.844-21.184-12.706-42.668-18.886-64.054q-18.7-64.109-36.937-128.359Z" transform="translate(-661.022 -403.887)" fill="#abb8fc"/>
        </g>
        <g id="Group_138" data-name="Group 138" transform="translate(54.586 6.1)">
          <path id="Path_68" data-name="Path 68" d="M754.761,504c-2.556,2.66-7.2,4.945-12.592,7.583-7.936,3.9-17.58,8.669-23.9,16.711A70.387,70.387,0,0,0,704.3,498.076c-.744-.934-1.574-1.766-2.343-2.669.743-9.343,6.595-17.344,11.778-24.412,3.32-4.526,6.191-8.438,7.253-12.1a1.5,1.5,0,1,0-2.874-.832c-.917,3.147-3.637,6.861-6.8,11.159-4.682,6.386-10.356,14.189-11.97,23.213a144.409,144.409,0,0,0-30.558-24.828,1.385,1.385,0,0,0,.228-1.458c-3.473-8.082-2-17.268-.712-25.375.821-5.142,1.533-9.589.858-13.058a1.388,1.388,0,0,0-2.724.533c.576,2.986-.093,7.2-.878,12.089-1.217,7.64-2.662,17.04.413,25.516-4.566-2.749-9.225-5.336-13.94-7.8a1.331,1.331,0,0,0-.974-.655c-.109-.013-.217,0-.326-.014q-7.121-3.679-14.3-7.092c4.017,2.337,8.045,4.655,12.056,7-8.6-.1-16.766,3.821-23.438,7.069-4.447,2.172-8.287,4.039-11.312,4.355a1.388,1.388,0,1,0,.282,2.762c3.515-.363,7.562-2.336,12.244-4.618,7.381-3.594,15.743-7.669,24.486-6.7a1.39,1.39,0,0,0,1.331-.646c.017-.028.017-.064.032-.093a208.774,208.774,0,0,1,19.477,12.823q3.988,2.9,7.844,5.983c-8.856.383-17.161,4.608-24,8.093-4.75,2.426-8.853,4.513-12.106,4.913a1.5,1.5,0,1,0,.358,2.97c3.78-.459,8.1-2.664,13.1-5.213,7.886-4.017,16.818-8.571,26.259-7.691l.078-.014A111.316,111.316,0,0,1,701.2,500.385a69.3,69.3,0,0,1,5.021,7.869c-10.386,1.379-19.519,7.57-26.972,12.678-4.945,3.4-9.218,6.325-12.789,7.245a1.683,1.683,0,0,0,.832,3.261c4.15-1.063,8.653-4.153,13.86-7.726,7.833-5.369,16.672-11.362,26.722-12.251,1.067,2.166,2.069,4.362,2.944,6.6a77.173,77.173,0,0,1,4.319,19.637,136.447,136.447,0,0,1-.038,17.958c-7.466-1.622-15.316.057-21.788,1.447-4.508.974-8.4,1.807-11.206,1.419a1.293,1.293,0,1,0-.359,2.562c3.26.455,7.363-.429,12.107-1.448,6.672-1.433,14.13-3.016,21.125-1.338-.473,6.773-1.235,13.58-1.937,20.412-.693,7.46-1.261,14.99-1.5,22.547-4.9-2.888-10.736-3.882-15.621-4.683-3.643-.591-6.783-1.109-8.761-2.218a1.034,1.034,0,1,0-1.016,1.8c2.294,1.292,5.609,1.834,9.44,2.46,5.309.871,11.237,1.845,15.924,5.024-.116,5.642-.071,11.294.373,16.945a150.935,150.935,0,0,0,8.686,41.078c9.513,26.479,25.8,49.7,44.107,70.4-8.219-11.161-16.576-22.215-23.258-34.3-6.972-11.867-13.074-24.286-17.212-37.353a162.653,162.653,0,0,1-7.769-40.126c-.014-.21-.007-.42-.021-.63a.99.99,0,0,0,.4-.234c4.512-4.761,11.235-6.463,17.168-7.968,3.765-.953,7.019-1.777,9.2-3.261a1.035,1.035,0,1,0-1.167-1.709c-1.876,1.274-4.96,2.059-8.539,2.962-5.512,1.4-12.262,3.153-17.146,7.615-.568-12.581.39-25.21,1.7-37.865.054-.59.11-1.185.164-1.775,7-3.491,15.26-3.051,22.6-2.628,4.845.282,9.034.526,12.187-.423a1.294,1.294,0,0,0-.749-2.477c-2.714.814-6.687.587-11.291.314-6.834-.394-15.163-.842-22.469,2.229,1.152-12.206,2.271-24.6,1.212-37.142-.143-1.464-.351-2.926-.572-4.387,5.6-8.992,15.653-13.936,24.536-18.3,5.67-2.781,10.574-5.186,13.538-8.278A1.683,1.683,0,0,0,754.761,504Z" transform="translate(-599.725 -416.682)" fill="#e6e9f8"/>
          <g id="Group_137" data-name="Group 137">
            <path id="Path_69" data-name="Path 69" d="M651.45,457.389a1.145,1.145,0,0,1-1.914-.294c-7.822-17.856.234-25.371-.769-35.293-.884-8.756,7.222,9.677,12.736,13.565C666.126,438.629,655.127,452.872,651.45,457.389Z" transform="translate(-586.58 -419.47)" fill="#b5eff9"/>
            <path id="Path_70" data-name="Path 70" d="M680.512,476.32a1.234,1.234,0,0,1-1.69-1.224c1.3-20.972,12.72-24.211,16.645-34.216,3.464-8.831,2.158,12.835,5.529,19.28C703.823,465.562,686.263,473.8,680.512,476.32Z" transform="translate(-573.769 -411.908)" fill="#b5eff9"/>
            <path id="Path_71" data-name="Path 71" d="M698.127,502.512a1.389,1.389,0,0,1-1.048-2.1c12.224-20.234,25.3-17.507,34.432-25.436,8.057-7-4.54,13.922-4.537,22.1C726.976,503.938,705.174,503,698.127,502.512Z" transform="translate(-566.701 -398.301)" fill="#b5eff9"/>
            <path id="Path_72" data-name="Path 72" d="M697.118,534.575a1.068,1.068,0,0,1,.095-1.8c15.825-8.919,23.546-2.152,32.651-4.008,8.036-1.638-8.3,7.6-11.388,13.076C715.883,546.43,701.651,537.562,697.118,534.575Z" transform="translate(-566.785 -376.986)" fill="#b5eff9"/>
            <path id="Path_73" data-name="Path 73" d="M694,564.663a.854.854,0,0,1-.363-1.4c9.923-10.62,17.444-7.318,23.942-10.929,5.736-3.188-4.5,7.8-5.536,12.721C711.176,569.183,698.181,565.848,694,564.663Z" transform="translate(-568.059 -367.699)" fill="#b5eff9"/>
            <path id="Path_74" data-name="Path 74" d="M640.28,452.562a1.145,1.145,0,0,0-.838-1.747c-19.359-2.292-24.207,7.6-33.99,9.526-8.636,1.7,11.359,4.1,16.682,8.241C626.6,472.057,637.027,457.393,640.28,452.562Z" transform="translate(-603.316 -407.338)" fill="#b5eff9"/>
            <path id="Path_75" data-name="Path 75" d="M663.493,468.061a1.234,1.234,0,0,0-.938-1.866c-20.906-2.1-25.94,8.66-36.446,10.923-9.273,2,12.32,4.195,18.139,8.56C649.125,489.337,660.08,473.33,663.493,468.061Z" transform="translate(-595.29 -401.291)" fill="#b5eff9"/>
            <path id="Path_76" data-name="Path 76" d="M682.222,491.335a1.39,1.39,0,0,0-1.318-1.946c-23.628.708-27.677,13.44-39.067,17.5-10.054,3.58,14.356,2.884,21.482,6.905C669.293,517.162,679.182,497.71,682.222,491.335Z" transform="translate(-589.179 -392.109)" fill="#b5eff9"/>
            <path id="Path_77" data-name="Path 77" d="M688.5,521.869a1.069,1.069,0,0,0-.37-1.768c-17-6.389-23.6,1.482-32.879,1.044-8.192-.388,9.365,6.237,13.258,11.175C671.773,536.46,684.477,525.514,688.5,521.869Z" transform="translate(-583.835 -381.073)" fill="#b5eff9"/>
            <path id="Path_78" data-name="Path 78" d="M685.71,554.3a.855.855,0,0,0,.242-1.425c-10.8-9.73-18.008-5.795-24.794-8.835-5.988-2.682,5.152,7.384,6.607,12.2C668.988,560.282,681.649,555.843,685.71,554.3Z" transform="translate(-581.367 -370.895)" fill="#b5eff9"/>
            <path id="Path_79" data-name="Path 79" d="M642.854,450.5a1.035,1.035,0,0,1-1.128,1.34c-17.471-2.376-19.476-12.137-27.607-16.038-7.175-3.444,10.875-1.014,16.475-3.439C635.289,430.33,641.1,445.532,642.854,450.5Z" transform="translate(-599.739 -414.498)" fill="#b5eff9"/>
          </g>
        </g>
        <g id="Group_140" data-name="Group 140" transform="translate(0 143.051)">
          <path id="Path_80" data-name="Path 80" d="M681.25,542.665c-.653,2.766-2.84,6.1-5.38,9.968-3.737,5.7-8.263,12.644-9.3,20.457a54.269,54.269,0,0,0-21.122-14.569c-.86-.327-1.738-.554-2.6-.851-3.171-6.489-2.427-14.092-1.76-20.813.427-4.3.8-8.027.068-10.869a1.153,1.153,0,0,0-2.233.576c.626,2.447.278,5.977-.132,10.068-.6,6.072-1.305,13.472,1.162,20.092a111.237,111.237,0,0,0-30.007-4.488,1.07,1.07,0,0,0-.42-1.057c-5.474-4-8.1-10.667-10.424-16.554-1.472-3.733-2.744-6.962-4.551-9a1.069,1.069,0,1,0-1.6,1.421c1.554,1.756,2.763,4.815,4.159,8.365,2.189,5.546,4.917,12.348,10.281,16.766-4.109-.033-8.212.076-12.306.292a1.028,1.028,0,0,0-.9-.053c-.077.035-.145.082-.221.118-4.11.235-8.209.534-12.266.9,3.581-.025,7.163-.067,10.741-.086-5.748,3.3-9.624,9.109-12.777,13.881-2.1,3.183-3.914,5.929-5.8,7.324a1.07,1.07,0,1,0,1.27,1.721c2.189-1.618,4.1-4.515,6.311-7.864,3.488-5.279,7.437-11.261,13.618-14.044a1.071,1.071,0,0,0,.629-.95.552.552,0,0,1-.014-.074,160.625,160.625,0,0,1,17.95.868q3.782.357,7.549.893c-5.725,3.725-9.577,9.785-12.75,14.782-2.2,3.473-4.1,6.464-6.1,8.006a1.153,1.153,0,1,0,1.4,1.83c2.328-1.786,4.331-4.945,6.649-8.6,3.656-5.757,7.8-12.28,14.4-15.4l.046-.04a85.747,85.747,0,0,1,19.476,5.582,53.166,53.166,0,0,1,6.418,3.25c-6.35,4.988-9.98,12.676-12.921,18.988-1.948,4.195-3.636,7.811-5.645,9.821a1.3,1.3,0,1,0,1.831,1.837c2.337-2.332,4.113-6.148,6.166-10.56,3.091-6.634,6.6-14.076,12.923-18.606,1.557,1.02,3.083,2.083,4.543,3.227a59.474,59.474,0,0,1,10.564,11.334,105.045,105.045,0,0,1,7.018,11.927c-5.589,1.852-10.137,6.045-13.887,9.5-2.609,2.414-4.863,4.493-6.877,5.336a1,1,0,1,0,.767,1.841c2.342-.977,4.717-3.171,7.463-5.709,3.865-3.567,8.192-7.541,13.49-9.172,2.342,4.678,4.505,9.493,6.719,14.3,2.465,5.22,5.042,10.439,7.85,15.544-4.381,0-8.644,1.635-12.2,3.019-2.649,1.035-4.935,1.924-6.683,1.963a.8.8,0,0,0,.033,1.595c2.03-.042,4.44-.982,7.228-2.07,3.862-1.5,8.177-3.182,12.533-2.911,2.136,3.787,4.381,7.519,6.893,11.094a116.255,116.255,0,0,0,21.87,23.843c16.693,13.837,36.6,22.856,56.867,29.409-9.828-4.181-19.708-8.237-28.881-13.637a141.669,141.669,0,0,1-26.065-18.03,125.324,125.324,0,0,1-20.89-23.572c-.092-.133-.17-.276-.26-.41a.78.78,0,0,0,.175-.313c1.126-4.928,4.918-8.693,8.263-12.018,2.123-2.108,3.96-3.931,4.821-5.768a.8.8,0,1,0-1.444-.676c-.743,1.582-2.482,3.311-4.5,5.314-3.108,3.09-6.9,6.9-8.388,11.775a197.017,197.017,0,0,1-13.719-25.787c-.195-.412-.391-.829-.586-1.242,3.272-5.059,8.927-8.008,13.961-10.6,3.325-1.714,6.2-3.195,7.918-5.06a1,1,0,1,0-1.466-1.35c-1.482,1.6-4.206,3.012-7.367,4.637-4.687,2.418-10.389,5.386-14.032,10.289-4.021-8.55-8.139-17.209-13.76-25.115-.669-.914-1.38-1.8-2.1-2.685.189-8.161,4.92-15.383,9.1-21.76,2.67-4.068,4.98-7.586,5.734-10.8a1.3,1.3,0,1,0-2.525-.59Z" transform="translate(-560.428 -515.076)" fill="#e6e9f8"/>
          <g id="Group_139" data-name="Group 139">
            <path id="Path_81" data-name="Path 81" d="M598.651,546.423a.883.883,0,0,1-1.386.556c-12.191-8.778-9.794-16.923-14.349-23.112-4.021-5.461,8.586,3.588,13.769,4.006C601.03,528.223,599.317,541.985,598.651,546.423Z" transform="translate(-557.018 -516.251)" fill="#b5eff9"/>
            <path id="Path_82" data-name="Path 82" d="M622.913,549.23a.952.952,0,0,1-1.6-.149c-7.364-14.421-1.055-21.048-2.374-29.225-1.166-7.217,6.464,7.668,11.228,10.621C634.158,532.952,625.739,545.3,622.913,549.23Z" transform="translate(-543.113 -517.902)" fill="#b5eff9"/>
            <path id="Path_83" data-name="Path 83" d="M644.851,561.784a1.07,1.07,0,0,1-1.519-.985c.174-18.215,9.919-21.535,12.866-30.374,2.6-7.8,2.447,11.015,5.659,16.441C664.547,551.417,649.716,559.341,644.851,561.784Z" transform="translate(-533.07 -513.733)" fill="#b5eff9"/>
            <path id="Path_84" data-name="Path 84" d="M659.16,583.134a.823.823,0,0,1-.646-1.233c7-12.123,14.776-10.662,20.088-15.463,4.689-4.238-2.525,8.3-2.428,13.141C676.257,583.641,663.339,583.339,659.16,583.134Z" transform="translate(-527.172 -499.245)" fill="#b5eff9"/>
            <path id="Path_85" data-name="Path 85" d="M668.178,603.385a.658.658,0,0,1-.789-.785c2.418-10.936,8.7-11.7,11.6-16.639,2.556-4.365.074,6.937,1.316,10.609C681.343,599.65,671.415,602.534,668.178,603.385Z" transform="translate(-523.662 -491.654)" fill="#b5eff9"/>
            <path id="Path_86" data-name="Path 86" d="M588.7,551.191a.884.884,0,0,0-1.241-.831c-13.741,6.072-13.079,14.535-18.814,19.648-5.062,4.515,9.143-1.736,14.3-1.074C587.27,569.49,588.437,555.672,588.7,551.191Z" transform="translate(-562.718 -505.229)" fill="#b5eff9"/>
            <path id="Path_87" data-name="Path 87" d="M610.021,552.675a.952.952,0,0,0-1.354-.871c-14.691,6.809-13.813,15.917-19.895,21.539-5.368,4.963,9.819-2.048,15.39-1.434C608.833,572.423,609.823,557.508,610.021,552.675Z" transform="translate(-554.864 -504.669)" fill="#b5eff9"/>
            <path id="Path_88" data-name="Path 88" d="M630.834,561.142a1.071,1.071,0,0,0-1.638-.773c-15.4,9.735-13.09,19.77-19.056,26.927-5.265,6.318,10.655-3.716,16.959-3.841C632.385,583.346,631.317,566.564,630.834,561.142Z" transform="translate(-546.471 -501.348)" fill="#b5eff9"/>
            <path id="Path_89" data-name="Path 89" d="M648.619,577.717a.823.823,0,0,0-.938-1.028c-13.787,2.431-15.074,10.236-21.4,13.585-5.586,2.955,8.658.466,13.177,2.215C643.244,593.955,647.38,581.713,648.619,577.717Z" transform="translate(-540.245 -494.902)" fill="#b5eff9"/>
            <path id="Path_90" data-name="Path 90" d="M659.9,598.275a.659.659,0,0,0-.4-1.041c-10.978-2.219-14.218,3.218-19.911,3.862-5.024.568,6.312,2.877,9.167,5.5C651.152,608.8,657.811,600.888,659.9,598.275Z" transform="translate(-535.03 -487.064)" fill="#b5eff9"/>
            <path id="Path_91" data-name="Path 91" d="M590.532,547.049a.8.8,0,0,1-.224,1.331c-12.522,5.275-17.68-.415-24.6.187-6.111.529,6.816-4.938,9.581-8.742C577.6,536.636,587.42,544.443,590.532,547.049Z" transform="translate(-564.083 -509.617)" fill="#b5eff9"/>
          </g>
        </g>
        <path id="Path_92" data-name="Path 92" d="M821.18,610.508c-9.611-12.318-12.312,21.723-30.4,22.733s-17.347-32.362-1.144-37.757,7.669-41.018-4.071-48.615-8.088,36.006-21.957,33.13-12.491-10.563-9.28-20.421-6.57-30.237-18.932-27.183,3.395,28.484,8.706,43.684-9.643,11.408-20.01-9.931-53.025-54.61-70.272-49.632-22.047,13.959-2.282,39.052,52.221,26.918,70.478,40.026,5.358,27.814-19.541,13.749S646.915,578.67,630,587.657s4.943,34.916,43.326,35.233,55.055,12.55,61.476,28.963-16.561,7.146-36.026,3.73-17.033,19.6,9.991,22.883c47.073,1.61,43.994,24.89,69.773,17.374,21.855-6.372,12.54-40.922,29.517-46.129S830.791,622.824,821.18,610.508Zm-45.049-25.489c.664-4.5,4.209-10.762,4.209-10.762,4.256-10.2,6.822-15.712,9.408-9.684s4.783,14.174-.98,17.684S775.468,589.521,776.131,585.019ZM673.794,554.034c-13.063-2.312-17.045-9.172-18.992-18.85s-.753-4.48,13.532-1.134,10.5,12.369,15.8,21.389S673.794,554.034,673.794,554.034Zm-19.587,55.391c-7,.838-16.041-4.712-19.633-8.45s9.393-8.358,21.049-1.763c0,0,14.162,7.9,14.183,9.663S661.2,608.587,654.207,609.424Zm65.809,62.624c-3.089,2.276-10.482,1.382-20.4-2.582s2.586-6.45,13.113-3.117C718.292,668.112,723.106,669.77,720.016,672.048ZM738.384,549c-2.656-4.6-1.779-10.324,4.4-8.823s5.369,6.868,1.28,15.285A19.05,19.05,0,0,1,738.384,549Zm29.066,119.943c-9.529.8-13.069-17.44-13.069-17.44-.946-14.306-18.551-16.615-13.337-32.7s13.216-27.875,15.324-9.863c1.784,15.232.964,25.393,24.418,32.779C798.51,647.3,777.224,668.128,767.451,668.946Zm50.582-35.578c-5.074,2.7-13.734,5.5-6.111-5.166,4.474-6.262,5.743-12.784,7.64-8.21S823.106,630.672,818.033,633.368Z" transform="translate(-540.552 -375.588)" fill="#c6b5f9"/>
      </g>
    </g>
    <g id="Group_166" data-name="Group 166" transform="translate(596.783 290.112)">
      <g id="Group_144" data-name="Group 144" transform="translate(64.56)">
        <g id="Group_143" data-name="Group 143">
          <path id="Path_93" data-name="Path 93" d="M871.99,384.929A121.2,121.2,0,1,0,750.942,512.094c66.83,0,121.236-54.311,121.236-121.141C872.178,388.882,872.083,386.905,871.99,384.929ZM750.942,502.681a109.784,109.784,0,0,1-35.392-5.742c6.212-8.658-.093-22.119-4.988-32.755-6.684-14.5,6.495-32.1-5.837-27.956s-18.26-24.944-24.472-17.6c-10.072,12.049,6.777,40.286-10.26,22.684-12.614-13.084-16.19-17.507-20.332-3.2a111.886,111.886,0,0,1,.753-96.009,55.247,55.247,0,0,1,.377,17.977c-2.354,19.579,5.083,28.239,9.788,14.119s9.789-32.567,29.368-38.874c19.672-6.212,16.942,8.283,41.981,1.6,25.132-6.684,19.2-27.862,6.306-26.639-12.895,1.13-11.765-12.142-1.223-15.718,7.153-2.354,2.918-7.531-12.425-12.331a116.037,116.037,0,0,1,26.355-3.105,111.058,111.058,0,0,1,69.372,24.19c.47,3.954-2.072,5.177-10.26,5.742-16.567,1.223-30.968,10.354-35.391,24.379-6.777,21.742,0,18.355,13.93,5.27,11.484-10.73,25.226,9.977,16.1,21.367-9.225,11.39-6.495,16.473,8.47,22.779,8.66,3.577,31.251,5.177,49.418,3.389a39.428,39.428,0,0,1,.188,4.705A111.876,111.876,0,0,1,750.942,502.681Z" transform="translate(-629.801 -269.717)" fill="#393768"/>
          <path id="Path_94" data-name="Path 94" d="M871.99,384.929A121.2,121.2,0,1,0,750.942,512.094c66.83,0,121.236-54.311,121.236-121.141C872.178,388.882,872.083,386.905,871.99,384.929ZM750.942,502.681a109.784,109.784,0,0,1-35.392-5.742c6.212-8.658-.093-22.119-4.988-32.755-6.684-14.5,6.495-32.1-5.837-27.956s-18.26-24.944-24.472-17.6c-10.072,12.049,6.777,40.286-10.26,22.684-12.614-13.084-16.19-17.507-20.332-3.2a111.886,111.886,0,0,1,.753-96.009,55.247,55.247,0,0,1,.377,17.977c-2.354,19.579,5.083,28.239,9.788,14.119s9.789-32.567,29.368-38.874c19.672-6.212,16.942,8.283,41.981,1.6,25.132-6.684,19.2-27.862,6.306-26.639-12.895,1.13-11.765-12.142-1.223-15.718,7.153-2.354,2.918-7.531-12.425-12.331a116.037,116.037,0,0,1,26.355-3.105,111.058,111.058,0,0,1,69.372,24.19c.47,3.954-2.072,5.177-10.26,5.742-16.567,1.223-30.968,10.354-35.391,24.379-6.777,21.742,0,18.355,13.93,5.27,11.484-10.73,25.226,9.977,16.1,21.367-9.225,11.39-6.495,16.473,8.47,22.779,8.66,3.577,31.251,5.177,49.418,3.389a39.428,39.428,0,0,1,.188,4.705A111.876,111.876,0,0,1,750.942,502.681Z" transform="translate(-629.801 -269.717)" fill="url(#linear-gradient)" style="mix-blend-mode: soft-light;isolation: isolate"/>
        </g>
        <path id="Path_95" data-name="Path 95" d="M871.99,384.929A121.2,121.2,0,1,0,750.942,512.094c66.83,0,121.236-54.311,121.236-121.141C872.178,388.882,872.083,386.905,871.99,384.929ZM750.942,502.681a109.824,109.824,0,0,1-35.392-5.742c6.212-8.66-.095-22.119-4.988-32.755-6.684-14.5,6.495-32.1-5.837-27.956s-18.26-24.944-24.472-17.6c-10.072,12.049,6.777,40.286-10.261,22.684-12.612-13.084-16.188-17.507-20.33-3.2a111.889,111.889,0,0,1,.753-96.011,55.258,55.258,0,0,1,.377,17.979c-2.354,19.579,5.083,28.239,9.788,14.119s9.789-32.568,29.368-38.874c19.672-6.214,16.942,8.283,41.981,1.6,25.132-6.683,19.2-27.862,6.306-26.639-12.895,1.13-11.765-12.142-1.223-15.718,7.153-2.354,2.918-7.531-12.425-12.331a116.028,116.028,0,0,1,26.355-3.105,111.055,111.055,0,0,1,69.372,24.19c.47,3.954-2.072,5.177-10.26,5.742-16.567,1.223-30.968,10.354-35.391,24.379-6.777,21.742,0,18.355,13.93,5.27,11.484-10.73,25.226,9.977,16.1,21.367-9.225,11.39-6.495,16.472,8.472,22.779,8.658,3.577,31.249,5.177,49.416,3.388a39.463,39.463,0,0,1,.188,4.707A111.877,111.877,0,0,1,750.942,502.681Z" transform="translate(-629.801 -269.717)" fill="url(#linear-gradient-2)" style="mix-blend-mode: soft-light;isolation: isolate"/>
      </g>
      <g id="Group_146" data-name="Group 146" transform="translate(161.245 121.188)">
        <g id="Group_145" data-name="Group 145">
          <path id="Path_96" data-name="Path 96" d="M997.766,765.125H726.928a27.636,27.636,0,0,1-27.636-27.637V384.455a27.636,27.636,0,0,1,27.636-27.636h98.519a27.636,27.636,0,0,1,22.995,12.306l5.7,8.551a27.637,27.637,0,0,0,23,12.306H997.766A27.636,27.636,0,0,1,1025.4,417.62V737.488A27.636,27.636,0,0,1,997.766,765.125Z" transform="translate(-699.292 -356.819)" fill="#adadea"/>
          <rect id="Rectangle_20" data-name="Rectangle 20" width="237.674" height="32.243" rx="11.374" transform="translate(22.57 67.71)" fill="#e6e9f8"/>
          <path id="Path_97" data-name="Path 97" d="M924.223,437.727h-45.6A16.12,16.12,0,0,1,862.5,421.606h0a16.121,16.121,0,0,1,16.121-16.121h45.6a16.122,16.122,0,0,1,16.122,16.121h0A16.121,16.121,0,0,1,924.223,437.727Z" transform="translate(-635.422 -337.775)" fill="#a8cfef"/>
          <rect id="Rectangle_21" data-name="Rectangle 21" width="248.268" height="275.086" rx="7.757" transform="translate(38.921 133.219)" fill="#e6e9f8"/>
          <path id="Path_98" data-name="Path 98" d="M906.625,513.023H773.049a16.235,16.235,0,0,1-16.236-16.236h0a16.236,16.236,0,0,1,16.236-16.237H906.625a16.237,16.237,0,0,1,16.237,16.237h0A16.236,16.236,0,0,1,906.625,513.023Z" transform="translate(-676.782 -308.398)" fill="#a8cfef"/>
          <path id="Path_99" data-name="Path 99" d="M906.625,555.067H773.049a16.235,16.235,0,0,1-16.236-16.237h0a16.235,16.235,0,0,1,16.236-16.236H906.625a16.236,16.236,0,0,1,16.237,16.236h0A16.236,16.236,0,0,1,906.625,555.067Z" transform="translate(-676.782 -291.945)" fill="#a8cfef"/>
          <rect id="Rectangle_22" data-name="Rectangle 22" width="30.327" height="29.133" rx="4.724" transform="translate(80.031 298.935)" fill="#a8cfef"/>
          <path id="Path_100" data-name="Path 100" d="M884.864,594.359h-48.6a11.343,11.343,0,0,1-11.342-11.342h0a11.342,11.342,0,0,1,11.342-11.342h48.6a11.343,11.343,0,0,1,11.342,11.342h0A11.343,11.343,0,0,1,884.864,594.359Z" transform="translate(-650.126 -272.738)" fill="#393768"/>
        </g>
        <path id="Path_101" data-name="Path 101" d="M997.766,389.983H877.138a27.637,27.637,0,0,1-23-12.306l-5.7-8.551a27.636,27.636,0,0,0-22.995-12.306H726.928a27.636,27.636,0,0,0-27.636,27.636V737.488a27.637,27.637,0,0,0,27.636,27.637H997.766a27.636,27.636,0,0,0,27.636-27.637V417.619A27.635,27.635,0,0,0,997.766,389.983Z" transform="translate(-699.292 -356.819)" fill="url(#linear-gradient-3)" style="mix-blend-mode: soft-light;isolation: isolate"/>
      </g>
      <g id="Group_149" data-name="Group 149" transform="translate(412.313 455.166)">
        <g id="Group_148" data-name="Group 148">
          <path id="Path_102" data-name="Path 102" d="M966.522,640.195a43.4,43.4,0,1,1-43.444-43.335A43,43,0,0,1,966.522,640.195Z" transform="translate(-879.743 -596.86)" fill="#393768"/>
          <path id="Path_103" data-name="Path 103" d="M962.511,640.195a43,43,0,0,1-8.845,26.2,43.477,43.477,0,0,1-63.673-38.471,42.516,42.516,0,0,1,8.732-25.978,43.4,43.4,0,0,1,63.786,38.249Z" transform="translate(-875.732 -596.86)" fill="#8681f4"/>
          <g id="Group_147" data-name="Group 147" transform="translate(23.669 16.983)">
            <path id="Path_104" data-name="Path 104" d="M913.585,654.8a5.53,5.53,0,0,1-4.562-2.407l-11.3-16.522a5.526,5.526,0,1,1,9.122-6.24l6.709,9.8L932.379,611.5a5.526,5.526,0,0,1,9.166,6.175l-23.379,34.686a5.507,5.507,0,0,1-4.561,2.44Z" transform="translate(-896.755 -609.066)" fill="#cce9f1"/>
          </g>
        </g>
        <path id="Path_105" data-name="Path 105" d="M923.078,596.86a43.307,43.307,0,1,0,43.444,43.333A42.985,42.985,0,0,0,923.078,596.86Z" transform="translate(-879.743 -596.86)" fill="url(#linear-gradient-4)" style="mix-blend-mode: soft-light;isolation: isolate"/>
      </g>
      <g id="Group_152" data-name="Group 152" transform="translate(388.325 294.881)">
        <g id="Group_150" data-name="Group 150" transform="translate(2.835 89.43)" opacity="0.1">
          <path id="Path_106" data-name="Path 106" d="M926.562,558.694l-14.751,7.239L894.7,574.269l-5.977,6.251-4.881,5.045-2.742,2.851L864.98,605.141l-.44.384,1.1-.11,7.952-1.042,11.461-1.535,3.126-.438,4.167-.548,18.864-2.524.6-.274,14.751-7.183,34.33-16.8-.157-29.14Z" transform="translate(-864.54 -545.934)"/>
        </g>
        <path id="Path_107" data-name="Path 107" d="M970.011,547.392l-10.484-2.179c-1.743,3.107-4.232,8.4-4.114,13.035,5.615,1.739,13.059,3.485,20.453,5.147Z" transform="translate(-826.144 -456.787)" fill="#393768"/>
        <path id="Path_108" data-name="Path 108" d="M969.685,547.873l-6.121-1.273-28.076-8.184-6.036,3.449,30.2,16.892a50.888,50.888,0,0,0,5.919,2.151C965.453,556.271,967.942,550.98,969.685,547.873Z" transform="translate(-836.302 -459.447)" fill="#edb6a4"/>
        <path id="Path_109" data-name="Path 109" d="M969.685,547.873l-6.121-1.273-28.076-8.184-6.036,3.449,30.2,16.892a50.888,50.888,0,0,0,5.919,2.151C965.453,556.271,967.942,550.98,969.685,547.873Z" transform="translate(-836.302 -459.447)" fill="url(#linear-gradient-5)" style="mix-blend-mode: soft-light;isolation: isolate"/>
        <g id="Group_151" data-name="Group 151">
          <path id="Path_110" data-name="Path 110" d="M884.179,592.916a36.945,36.945,0,0,0,7.553,16.8,39.114,39.114,0,0,0,8.948,8.272L1066.017,537.5l11.125-5.4,8.9-4.308,6.852-3.353,31.169-15.168a14.221,14.221,0,0,0,3.379-2.577c3.657-3.9,4.863-9.845,1.658-14.674l-2.1-3.2c-3.861-7.512-11.561-8.745-18.473-5.414l-35.323,17.26-4.764,2.278-3.069,1.535-.06-.022-10.411,5.116Zm147.087-48.334-1.475-2.3-5.512-8.383,33.109-16.025,18.469-8.982,25.626-12.427,5.376,8.2,1.632,2.425-23.477,11.374-9.081,4.444-5.277,2.567-5.44,2.642Z" transform="translate(-854.019 -481.658)" fill="#cce9f1"/>
          <path id="Path_111" data-name="Path 111" d="M862.5,592.91l1.074-.153,22.551-3.019,23.036-3.047a39.114,39.114,0,0,1-8.948-8.271,36.945,36.945,0,0,1-7.553-16.8l-29.745,30.895Z" transform="translate(-862.502 -450.365)" fill="#9da8f3"/>
          <path id="Path_112" data-name="Path 112" d="M1069.772,503.075l-77.216,37.467c-7.812,3.638-12.491-7.819-7.008-10.648l77.215-37.47C1069.352,489.552,1074.463,500.233,1069.772,503.075Z" transform="translate(-815.282 -477.635)" fill="#9da8f3"/>
        </g>
        <path id="Path_113" data-name="Path 113" d="M941.668,645.374l.2,3.2s.047.074-.006.314l-.013.06a14.965,14.965,0,0,1-.623,4.664,2.936,2.936,0,0,1-.6,1.009c-1.327,1.482,11.917,2.118,11.917,2.118a7.555,7.555,0,0,1-.8-1.874c-.267-.815-.2-3.453-.005-7.324Z" transform="translate(-831.965 -417.59)" fill="#edb6a4"/>
        <path id="Path_114" data-name="Path 114" d="M930.39,662.406l27.24-.966c1.868-2.916,1.606-5.9-.316-8.926-4.473.466-8.668.187-12.368-1.423-3.453,3.061-8.678,5.547-14.681,7.78C928.341,659.759,928.746,660.99,930.39,662.406Z" transform="translate(-836.486 -415.352)" fill="#adadea"/>
        <rect id="Rectangle_23" data-name="Rectangle 23" width="27.301" height="1.169" transform="matrix(0.999, -0.035, 0.035, 0.999, 93.904, 247.054)" fill="#393768"/>
        <path id="Path_115" data-name="Path 115" d="M943.724,590.307c-4.152.87-9.205,4.953-9.735,8.942-1.819,13.678,9.55,70.508,9.689,71.946a25.792,25.792,0,0,0,10.361-.377l.507-.1c3.036-14.448,3.853-31.608,2.188-50.568,3.179,6.161,52.019,17.257,53.458,13.681l.99-2.905,7.145-20.908c-.294-.086-.557-.136-.85-.221-1.9-.456-3.995-.576-5.823-1.443C1001.564,603.567,950.9,588.8,943.724,590.307Z" transform="translate(-834.604 -439.181)" fill="#e6e9f8"/>
        <path id="Path_116" data-name="Path 116" d="M1027.741,653.3s4.74-.4,6.3.879,1.368-12.283,1.368-12.283-6.965,4-10.087,2.4S1027.741,653.3,1027.741,653.3Z" transform="translate(-799.157 -418.952)" fill="#edb6a4"/>
        <path id="Path_117" data-name="Path 117" d="M1042.442,668.3l-2.6-26.342c-2.941-1.632-5.813-1.2-8.632.852a23.681,23.681,0,0,1-.623,12.074c3.178,3.16,5.908,8.071,8.44,13.755C1040,670.451,1041.17,669.985,1042.442,668.3Z" transform="translate(-796.725 -419.315)" fill="#adadea"/>
        <rect id="Rectangle_24" data-name="Rectangle 24" width="26.513" height="1.135" transform="translate(245.717 248.99) rotate(-95.638)" fill="#393768"/>
        <path id="Path_118" data-name="Path 118" d="M1024.22,604.509c-2.784,23.957-17.664,40.148-27.364,54.718,24.506-2.362,35.972-1.753,52.648-.63.885,3.572,1.55,7.044,1.1,10.295l-58.338,12.519c-33.449,3.547-19.039-54.752-4.132-72Z" transform="translate(-819.702 -433.582)" fill="#e6e9f8"/>
        <path id="Path_119" data-name="Path 119" d="M1027.711,627.224c-23.848,10.172-50.227,6.531-49.858-4.068,4.548-21.872-2.72-22.659-7.654-45.643.017-.036.017-.036.007-.063-.807-3.778-1.579-7.776-2.3-12.121-.153-.954-.317-1.935-.463-2.952q-1.1-7.138-1.853-15.569c4.032-.369,7.9-.79,11.58-1.056a79.887,79.887,0,0,1,12.533-.193,31.4,31.4,0,0,1,14.086,4.134C1027.711,576,1015.278,592.957,1027.711,627.224Z" transform="translate(-822.162 -456.718)" fill="#393768"/>
        <path id="Path_120" data-name="Path 120" d="M972.742,540.746l15.2-2.8c-.38,5.393.2,6.958,3.9,11.306-.657,6.176-18.719,8.02-15.3.927C976.142,545.172,975.539,544.858,972.742,540.746Z" transform="translate(-819.361 -459.63)" fill="#e0a494"/>
        <path id="Path_121" data-name="Path 121" d="M972.742,540.746l15.2-2.8c-.38,5.393.2,6.958,3.9,11.306-.657,6.176-18.719,8.02-15.3.927C976.142,545.172,975.539,544.858,972.742,540.746Z" transform="translate(-819.361 -459.63)" fill="url(#linear-gradient-6)" style="mix-blend-mode: soft-light;isolation: isolate"/>
        <path id="Path_122" data-name="Path 122" d="M972.918,553.582c1.82,1.333,10.653-2.317,19.365-7.383l-3.238-25.082-21.77,2.638C963.067,536.214,969.136,552.1,972.918,553.582Z" transform="translate(-822.059 -466.216)" fill="#edb6a4"/>
        <path id="Path_123" data-name="Path 123" d="M972.918,553.582c1.82,1.333,10.653-2.317,19.365-7.383l-3.238-25.082-21.77,2.638C963.067,536.214,969.136,552.1,972.918,553.582Z" transform="translate(-822.059 -466.216)" fill="url(#linear-gradient-7)" style="mix-blend-mode: soft-light;isolation: isolate"/>
        <path id="Path_124" data-name="Path 124" d="M1013.061,577.545c-2.459,1.809-23.522,4.5-25.09,2.473-2.26,1.894-41.057-21.649-43.68-25.427a13.9,13.9,0,0,1-5.781-2,11.732,11.732,0,0,1-1.764-6.734c.374-2.57.963-5.081,2.2-5.944.39-.229,2.57,4.1,4.981,4.739,1.018-1.031.922-1.7.665-3.11.924-.874,1.2-1.209,2.6-.394.8,2.059,1.9,4.267,1.876,6.729l41.657,20.006,14.47-4.354C1006,568.138,1010.262,574.235,1013.061,577.545Z" transform="translate(-833.448 -458.863)" fill="#edb6a4"/>
        <path id="Path_125" data-name="Path 125" d="M1013.061,577.545c-2.459,1.809-23.522,4.5-25.09,2.473-2.26,1.894-41.057-21.649-43.68-25.427a13.9,13.9,0,0,1-5.781-2,11.732,11.732,0,0,1-1.764-6.734c.374-2.57.963-5.081,2.2-5.944.39-.229,2.57,4.1,4.981,4.739,1.018-1.031.922-1.7.665-3.11.924-.874,1.2-1.209,2.6-.394.8,2.059,1.9,4.267,1.876,6.729l41.657,20.006,14.47-4.354C1006,568.138,1010.262,574.235,1013.061,577.545Z" transform="translate(-833.448 -458.863)" fill="url(#linear-gradient-8)" style="mix-blend-mode: soft-light;isolation: isolate"/>
        <path id="Path_126" data-name="Path 126" d="M963.15,527.153c-2.62,2.522,1.167,6.811,3.979,9.678a18.757,18.757,0,0,0,11.284-5.083c1.3,3.164,3.345,7.67,2.214,9.463a5.231,5.231,0,0,0,4.006.259c-.325-2.059-.037-3.892,1.386-4.964.917-.648,1.12-.664,2.457-.15,1.647.705,1.4,2.582.228,3.906-2.854,2.947,1.728,5.771,3.239,8.145,2.646-1.1,4.789-3.506,5-5.518,1.383-5.992,2.114-11.1-3.172-16.862-2.655-5.717-10.422-10.226-16.657-6.845C970.464,526.912,967.849,522.827,963.15,527.153Z" transform="translate(-823.46 -467.429)" fill="#635fb5"/>
      </g>
      <g id="Group_157" data-name="Group 157" transform="translate(0 249.659)">
        <path id="Path_127" data-name="Path 127" d="M792.865,509.4l-42.99-42.99a11.423,11.423,0,0,0-11.707-2.694,12.075,12.075,0,0,0-4.558,2.694l-26.726,26.726a4.728,4.728,0,0,0-2.279-1.14c-.31,0-.31,2.175-.725,4.248l-2.589,2.485a4.03,4.03,0,0,1-1.244-1.967,2.006,2.006,0,0,0-.725-.1v64.123a10.618,10.618,0,0,0,2.8-1.138l20.2,20.2a11.257,11.257,0,0,0,15.849.31,1.442,1.442,0,0,0,.415-.31l54.282-54.179a10.511,10.511,0,0,0,3.005-5.8A11.334,11.334,0,0,0,792.865,509.4Z" transform="translate(-538.035 -443.689)" opacity="0.1"/>
        <g id="Group_153" data-name="Group 153" transform="translate(89.126 33.705)">
          <path id="Path_128" data-name="Path 128" d="M706.722,485.52a15.225,15.225,0,0,1-5.035,5.543c-1.387,6.76-22.781,42.407-28.3,46.5-3.22,3.058-21.42,12.54-24.493,10.51a26.781,26.781,0,0,0-1.433-14.528L664,529.717l4.569-6.666,19.473-28.205,3.645-5.38,2-2.912c-1.3-2.389-1.453-4.967-1.832-7.352.964-1.567,1.391-1.38,2.773-1.06.561,1.519.818,2.233,2.407,2.67,2-1.988,1.686-7.395,2.184-7.431,1.7.156,3.706,2.258,5.465,4.6A12.921,12.921,0,0,1,706.722,485.52Z" transform="translate(-647.458 -473.38)" fill="#edb6a4"/>
          <path id="Path_129" data-name="Path 129" d="M706.722,485.52a15.225,15.225,0,0,1-5.035,5.543c-1.387,6.76-22.781,42.407-28.3,46.5-3.22,3.058-21.42,12.54-24.493,10.51a26.781,26.781,0,0,0-1.433-14.528L664,529.717l4.569-6.666,19.473-28.205,3.645-5.38,2-2.912c-1.3-2.389-1.453-4.967-1.832-7.352.964-1.567,1.391-1.38,2.773-1.06.561,1.519.818,2.233,2.407,2.67,2-1.988,1.686-7.395,2.184-7.431,1.7.156,3.706,2.258,5.465,4.6A12.921,12.921,0,0,1,706.722,485.52Z" transform="translate(-647.458 -473.38)" fill="url(#linear-gradient-9)" style="mix-blend-mode: soft-light;isolation: isolate"/>
        </g>
        <path id="Path_130" data-name="Path 130" d="M646.871,517.823l11.342-3.51c2.158,3.367,5.916,10.022,6.089,15.227-5.276,3.905-12.194,9.375-20.629,11.41Z" transform="translate(-559.813 -423.657)" fill="#ddf7fc"/>
        <path id="Path_131" data-name="Path 131" d="M646.323,678.02s-.328,5.01,1.053,6.631-12.93,1.692-12.93,1.692,4.082-7.43,2.328-10.692S646.323,678.02,646.323,678.02Z" transform="translate(-563.424 -360.917)" fill="#edb6a4"/>
        <path id="Path_132" data-name="Path 132" d="M662.483,693.289l-27.845-2.211c-1.782-3.069-1.379-6.108.725-9.123,4.558.679,8.864.58,12.725-.9,3.4,3.289,8.635,6.069,14.681,8.625C664.7,690.67,664.231,691.913,662.483,693.289Z" transform="translate(-563.789 -358.405)" fill="#9da8f3"/>
        <rect id="Rectangle_25" data-name="Rectangle 25" width="27.978" height="1.198" transform="matrix(-0.997, -0.079, 0.079, -0.997, 98.6, 336.077)" fill="#a8cfef"/>
        <path id="Path_133" data-name="Path 133" d="M613.445,586.441a15.644,15.644,0,0,1,1.391,3.018c1.844,8.049,22.569,40.588,28.449,57.4,5.283,16.98,3.921,43.1.966,72.121a19.853,19.853,0,0,0,11.544.685c5.785-29.311,14.631-65.892,11.854-74.865a294.965,294.965,0,0,0-17.634-62.574l-.968-3.44-1.505-5.332-5.867,2.244-20.848,7.945Z" transform="translate(-571.642 -400.513)" fill="#385575"/>
        <path id="Path_134" data-name="Path 134" d="M600.01,672.1s-2.182,4.522-1.508,6.542-12.622-3.277-12.622-3.277,6.57-5.359,6.165-9.041S600.01,672.1,600.01,672.1Z" transform="translate(-582.429 -364.501)" fill="#edb6a4"/>
        <path id="Path_135" data-name="Path 135" d="M608.828,692.153,583.84,679.669c-.5-3.513,1.011-6.179,4.091-8.187,3.972,2.336,8,3.86,12.138,3.932,1.916,4.323,5.729,8.863,10.379,13.5C611.864,690.556,610.962,691.533,608.828,692.153Z" transform="translate(-583.265 -362.15)" fill="#9da8f3"/>
        <rect id="Rectangle_26" data-name="Rectangle 26" width="27.978" height="1.198" transform="translate(25.028 331.075) rotate(-153.451)" fill="#a8cfef"/>
        <path id="Path_136" data-name="Path 136" d="M621.826,575.063c.058,1.119-11.075,9.668-11.428,10.731-6.734,20.281,4.01,35.88,4.55,53.112-1.466,17.723-12.516,41.427-26.135,67.228a19.861,19.861,0,0,0,10.446,4.96c16.348-25.007,38.259-55.606,39.048-64.966a294.926,294.926,0,0,0,7.1-64.622l.391-3.552.6-5.505-6.282-.12-22.3-.448Z" transform="translate(-581.282 -401.128)" fill="#385575"/>
        <path id="Path_137" data-name="Path 137" d="M601.255,617.461c.839,7.307,57.469-.39,57.935-5.625-6.055-24.339-4.029-34.2.505-60.2-.021-.04-.021-.04-.01-.07.74-4.273,1.432-8.792,2.055-13.7.131-1.078.271-2.186.392-3.334q.92-8.056,1.4-17.548c-4.541-.737-8.328-.542-13.038-.679-4.963.513-9.666-.207-14.069.328-5.66.641-10.627.381-18.247,5.339C603.5,536.015,613.709,578.478,601.255,617.461Z" transform="translate(-576.413 -422.876)" fill="#ddf7fc"/>
        <path id="Path_138" data-name="Path 138" d="M643.131,508.978l-15.916,2.642c1.326,6.065,1.448,5.711-3.58,8.139,1.293,11.216,28.478,13.187,19.956-.447C637.683,518.783,641.005,515.335,643.131,508.978Z" transform="translate(-567.654 -425.744)" fill="#e0a494"/>
        <path id="Path_139" data-name="Path 139" d="M643.131,508.978l-15.916,2.642c1.326,6.065,1.448,5.711-3.58,8.139,1.293,11.216,28.478,13.187,19.956-.447C637.683,518.783,641.005,515.335,643.131,508.978Z" transform="translate(-567.654 -425.744)" fill="url(#linear-gradient-10)" style="mix-blend-mode: soft-light;isolation: isolate"/>
        <path id="Path_140" data-name="Path 140" d="M649.232,520.041c-1.041,2.112-11.182,2.228-21.69,1.743l-9.109-24.778,21.424-8.064C649.765,498.442,652.017,516.848,649.232,520.041Z" transform="translate(-569.69 -433.585)" fill="#edb6a4"/>
        <path id="Path_141" data-name="Path 141" d="M649.232,520.041c-1.041,2.112-11.182,2.228-21.69,1.743l-9.109-24.778,21.424-8.064C649.765,498.442,652.017,516.848,649.232,520.041Z" transform="translate(-569.69 -433.585)" fill="url(#linear-gradient-11)" style="mix-blend-mode: soft-light;isolation: isolate"/>
        <path id="Path_142" data-name="Path 142" d="M650.871,483.335c3.644,1.07,3.85,13.957-2.92,18.032-4.914,1.738-7.886,1.93-12.9.743.326,3.555.607,8.714,2.518,9.826a5.464,5.464,0,0,1-3.583,2.175c-.692-2.063-1.844-3.62-3.679-3.926-1.162-.157-1.357-.074-2.346,1.046-1.185,1.448-.047,3.065,1.672,3.726,4.064,1.35,3.9,8.139,3.647,11.065-2.979.26-8.018-2.989-10-4.658-4.174-4.879-5.778-6.171-7.243-16.91C617.944,483.606,631.242,491.689,650.871,483.335Z" transform="translate(-570.628 -435.779)" fill="#393768"/>
        <g id="Group_155" data-name="Group 155" transform="translate(107.515 0)">
          <path id="Rectangle_27" data-name="Rectangle 27" d="M8.24,0H75.491a8.24,8.24,0,0,1,8.24,8.24v83.2a8.24,8.24,0,0,1-8.24,8.24H8.239A8.239,8.239,0,0,1,0,91.443V8.24A8.24,8.24,0,0,1,8.24,0Z" transform="translate(70.486 0) rotate(45)" fill="#a9d3f6"/>
          <rect id="Rectangle_28" data-name="Rectangle 28" width="20.467" height="20.467" rx="3.26" transform="translate(64.682 17.136) rotate(45)" fill="#393768"/>
          <rect id="Rectangle_29" data-name="Rectangle 29" width="40.818" height="12.443" rx="3.589" transform="translate(81.211 39.338) rotate(45)" fill="#393768"/>
          <rect id="Rectangle_30" data-name="Rectangle 30" width="20.467" height="20.467" rx="3.26" transform="translate(44.947 36.871) rotate(45)" fill="#393768"/>
          <rect id="Rectangle_31" data-name="Rectangle 31" width="40.818" height="12.443" rx="3.589" transform="translate(61.475 59.073) rotate(45)" fill="#393768"/>
          <rect id="Rectangle_32" data-name="Rectangle 32" width="20.467" height="20.467" rx="3.26" transform="translate(25.211 56.606) rotate(45)" fill="#393768"/>
          <rect id="Rectangle_33" data-name="Rectangle 33" width="40.818" height="12.443" rx="3.589" transform="translate(41.74 78.809) rotate(45)" fill="#393768"/>
          <g id="Group_154" data-name="Group 154" transform="translate(39.114 46.793)">
            <path id="Path_143" data-name="Path 143" d="M689.214,490.485a1.463,1.463,0,0,1-.4-1.3l.975-5.2a1.462,1.462,0,0,1,2.873.54l-.579,3.087,8.745-1.7a1.462,1.462,0,0,1,.559,2.869l-10.858,2.115a1.46,1.46,0,0,1-1.309-.4Z" transform="translate(-688.787 -482.786)" fill="#e6e9f8"/>
          </g>
        </g>
        <path id="Path_144" data-name="Path 144" d="M780.924,498.919l-42.992-42.994a11.464,11.464,0,0,0-16.213,0L667.445,510.2a11.463,11.463,0,0,0,0,16.212l42.994,42.994a11.463,11.463,0,0,0,16.212,0l54.273-54.273A11.464,11.464,0,0,0,780.924,498.919Z" transform="translate(-551.824 -447.82)" fill="url(#linear-gradient-12)" style="mix-blend-mode: soft-light;isolation: isolate"/>
        <g id="Group_156" data-name="Group 156" transform="translate(57.992 86.496)">
          <path id="Path_145" data-name="Path 145" d="M706.892,525.6a15.232,15.232,0,0,1-7.174,2.151c-4.675,5.077-41.388,24.582-48.234,25.243-4.334.96-24.817-.3-26.4-3.629a26.775,26.775,0,0,0,6.265-13.184l16.144,5.245,7.353-3.355,31.23-14.119,5.9-2.73,3.218-1.461c.114-2.72,1.318-5,2.222-7.245,1.633-.843,1.9-.465,2.923.523-.3,1.59-.452,2.336.685,3.528,2.74-.672,5.259-5.465,5.7-5.24,1.377,1.013,2.01,3.847,2.31,6.758A12.921,12.921,0,0,1,706.892,525.6Z" transform="translate(-625.081 -511.323)" fill="#edb6a4"/>
          <path id="Path_146" data-name="Path 146" d="M706.892,525.6a15.232,15.232,0,0,1-7.174,2.151c-4.675,5.077-41.388,24.582-48.234,25.243-4.334.96-24.817-.3-26.4-3.629a26.775,26.775,0,0,0,6.265-13.184l16.144,5.245,7.353-3.355,31.23-14.119,5.9-2.73,3.218-1.461c.114-2.72,1.318-5,2.222-7.245,1.633-.843,1.9-.465,2.923.523-.3,1.59-.452,2.336.685,3.528,2.74-.672,5.259-5.465,5.7-5.24,1.377,1.013,2.01,3.847,2.31,6.758A12.921,12.921,0,0,1,706.892,525.6Z" transform="translate(-625.081 -511.323)" fill="url(#linear-gradient-13)" style="mix-blend-mode: soft-light;isolation: isolate"/>
        </g>
      </g>
      <g id="Group_165" data-name="Group 165" transform="translate(498.187 39.304)">
        <g id="Group_158" data-name="Group 158">
          <path id="Path_147" data-name="Path 147" d="M941.463,297.966v15.728a78.639,78.639,0,0,1,78.56,75.967h15.729A94.409,94.409,0,0,0,941.463,297.966Z" transform="translate(-941.463 -297.966)" fill="#9da8f3"/>
        </g>
        <g id="Group_159" data-name="Group 159" transform="translate(0 31.457)">
          <path id="Path_148" data-name="Path 148" d="M941.463,320.575V336.3a47.159,47.159,0,0,1,47.026,44.51H1004.3A62.983,62.983,0,0,0,941.463,320.575Z" transform="translate(-941.463 -320.575)" fill="#9da8f3"/>
        </g>
        <g id="Group_160" data-name="Group 160" transform="translate(0 62.912)">
          <path id="Path_149" data-name="Path 149" d="M941.463,343.183v15.728a15.724,15.724,0,0,1,15.491,13.055h15.807A31.433,31.433,0,0,0,941.463,343.183Z" transform="translate(-941.463 -343.183)" fill="#9da8f3"/>
        </g>
        <g id="Group_164" data-name="Group 164" style="mix-blend-mode: soft-light;isolation: isolate">
          <g id="Group_161" data-name="Group 161">
            <path id="Path_150" data-name="Path 150" d="M941.463,297.966v15.728a78.639,78.639,0,0,1,78.56,75.967h15.729A94.409,94.409,0,0,0,941.463,297.966Z" transform="translate(-941.463 -297.966)" fill="#9da8f3"/>
          </g>
          <g id="Group_162" data-name="Group 162" transform="translate(0 31.457)">
            <path id="Path_151" data-name="Path 151" d="M941.463,320.575V336.3a47.159,47.159,0,0,1,47.026,44.51H1004.3A62.983,62.983,0,0,0,941.463,320.575Z" transform="translate(-941.463 -320.575)" fill="#9da8f3"/>
          </g>
          <g id="Group_163" data-name="Group 163" transform="translate(0 62.912)">
            <path id="Path_152" data-name="Path 152" d="M941.463,343.183v15.728a15.724,15.724,0,0,1,15.491,13.055h15.807A31.433,31.433,0,0,0,941.463,343.183Z" transform="translate(-941.463 -343.183)" fill="#9da8f3"/>
          </g>
        </g>
      </g>
    </g>
  </g>
</svg>
